<svg xmlns="http://www.w3.org/2000/svg" xmlns:xlink="http://www.w3.org/1999/xlink" width="1024" zoomAndPan="magnify" viewBox="0 0 768 767.999994" height="1024" preserveAspectRatio="xMidYMid meet" version="1.2"><defs><clipPath id="2591fbd6d1"><path d="M 307.199219 457.871094 L 460.949219 457.871094 L 460.949219 611.621094 L 307.199219 611.621094 Z M 307.199219 457.871094 "/></clipPath></defs><g id="5bbf33a455"><path style=" stroke:none;fill-rule:nonzero;fill:#000000;fill-opacity:1;" d="M 383.851562 0.1875 C 312.011719 0.1875 253.613281 58.523438 253.613281 130.398438 L 253.613281 169.289062 L 214.652344 169.289062 C 199.484375 169.289062 185.769531 176.011719 176.507812 185.914062 C 167.242188 195.730469 161.886719 208.359375 159.796875 221.714844 L 84.597656 710.113281 C 82.054688 726.558594 89.136719 741.914062 99.671875 751.910156 C 110.207031 761.90625 124.285156 767.8125 139.453125 767.8125 L 628.246094 767.8125 C 643.414062 767.8125 657.492188 761.90625 668.027344 751.910156 C 678.5625 741.914062 685.644531 726.558594 683.101562 710.113281 L 607.902344 221.714844 C 605.816406 208.359375 600.457031 195.730469 591.191406 185.914062 C 581.929688 176.011719 568.214844 169.289062 553.046875 169.289062 L 514.085938 169.289062 L 514.085938 130.398438 C 514.085938 58.523438 455.6875 0.1875 383.851562 0.1875 Z M 383.851562 35.082031 C 436.980469 35.082031 479.210938 77.242188 479.210938 130.398438 L 479.210938 169.289062 L 288.488281 169.289062 L 288.488281 130.398438 C 288.488281 77.242188 330.71875 35.082031 383.851562 35.082031 Z M 214.652344 204.179688 L 253.613281 204.179688 L 253.613281 303.949219 C 231.90625 311.308594 216.015625 331.753906 216.015625 355.832031 C 216.015625 386 240.898438 410.804688 271.050781 410.804688 C 301.203125 410.804688 326.089844 386 326.089844 355.832031 C 326.089844 331.753906 310.195312 311.308594 288.488281 303.949219 L 288.488281 204.179688 L 479.210938 204.179688 L 479.210938 303.949219 C 457.503906 311.308594 441.613281 331.753906 441.613281 355.832031 C 441.613281 386 466.496094 410.804688 496.648438 410.804688 C 526.800781 410.804688 551.6875 386 551.6875 355.832031 C 551.6875 331.753906 535.792969 311.308594 514.085938 303.949219 L 514.085938 204.179688 L 553.046875 204.179688 C 565.945312 204.179688 571.210938 215.808594 573.390625 226.988281 L 636.785156 638.964844 L 130.914062 638.964844 L 194.308594 226.988281 C 196.761719 212.355469 204.296875 204.179688 214.652344 204.179688 Z M 271.050781 335.660156 C 282.402344 335.660156 291.214844 344.472656 291.214844 355.832031 C 291.214844 367.191406 282.402344 376.003906 271.050781 376.003906 C 259.699219 376.003906 250.890625 367.191406 250.890625 355.832031 C 250.890625 344.472656 259.699219 335.660156 271.050781 335.660156 Z M 496.648438 335.660156 C 508 335.660156 516.8125 344.472656 516.8125 355.832031 C 516.8125 367.191406 508 376.003906 496.648438 376.003906 C 485.296875 376.003906 476.488281 367.191406 476.488281 355.832031 C 476.488281 344.472656 485.296875 335.660156 496.648438 335.660156 Z M 125.558594 673.855469 L 642.144531 673.855469 L 648.589844 715.472656 C 650.589844 726.105469 639.601562 732.917969 628.246094 732.917969 L 139.453125 732.917969 C 125.195312 732.917969 117.835938 723.378906 119.109375 715.472656 Z M 125.558594 673.855469 "/><path style=" stroke:none;fill-rule:nonzero;fill:#000000;fill-opacity:1;" d="M 413.324219 505.5 C 413.085938 505.261719 412.828125 505.046875 412.546875 504.863281 C 412.265625 504.675781 411.972656 504.515625 411.660156 504.386719 C 411.351562 504.257812 411.03125 504.164062 410.699219 504.097656 C 410.371094 504.03125 410.035156 504 409.699219 504 C 409.363281 504 409.03125 504.03125 408.699219 504.097656 C 408.371094 504.164062 408.050781 504.257812 407.738281 504.386719 C 407.429688 504.515625 407.132812 504.675781 406.851562 504.863281 C 406.574219 505.046875 406.316406 505.261719 406.078125 505.5 L 384.074219 527.5 L 362.074219 505.5 C 361.835938 505.269531 361.574219 505.0625 361.296875 504.882812 C 361.015625 504.699219 360.722656 504.546875 360.414062 504.425781 C 360.101562 504.300781 359.785156 504.210938 359.457031 504.148438 C 359.132812 504.085938 358.800781 504.058594 358.46875 504.058594 C 358.136719 504.0625 357.804688 504.097656 357.480469 504.164062 C 357.15625 504.234375 356.839844 504.332031 356.53125 504.457031 C 356.222656 504.585938 355.933594 504.746094 355.65625 504.929688 C 355.378906 505.117188 355.125 505.324219 354.890625 505.5625 C 354.652344 505.796875 354.441406 506.050781 354.257812 506.328125 C 354.074219 506.605469 353.914062 506.898438 353.785156 507.203125 C 353.65625 507.511719 353.558594 507.828125 353.492188 508.152344 C 353.425781 508.480469 353.390625 508.808594 353.386719 509.140625 C 353.386719 509.472656 353.414062 509.804688 353.476562 510.128906 C 353.539062 510.457031 353.628906 510.777344 353.753906 511.085938 C 353.875 511.394531 354.027344 511.6875 354.207031 511.96875 C 354.390625 512.246094 354.59375 512.507812 354.828125 512.746094 L 376.828125 534.746094 L 354.828125 556.75 C 354.582031 556.984375 354.363281 557.242188 354.167969 557.523438 C 353.976562 557.804688 353.8125 558.101562 353.679688 558.414062 C 353.542969 558.726562 353.441406 559.046875 353.371094 559.382812 C 353.300781 559.714844 353.265625 560.050781 353.261719 560.390625 C 353.257812 560.730469 353.289062 561.066406 353.355469 561.402344 C 353.417969 561.738281 353.515625 562.0625 353.644531 562.375 C 353.773438 562.691406 353.929688 562.988281 354.121094 563.273438 C 354.308594 563.558594 354.523438 563.820312 354.761719 564.058594 C 355.003906 564.300781 355.265625 564.515625 355.550781 564.703125 C 355.832031 564.890625 356.132812 565.050781 356.445312 565.179688 C 356.761719 565.308594 357.085938 565.402344 357.421875 565.46875 C 357.753906 565.53125 358.089844 565.5625 358.429688 565.558594 C 358.773438 565.558594 359.109375 565.519531 359.441406 565.449219 C 359.773438 565.378906 360.097656 565.277344 360.410156 565.144531 C 360.722656 565.011719 361.019531 564.847656 361.296875 564.652344 C 361.578125 564.460938 361.835938 564.242188 362.074219 563.996094 L 384.074219 541.992188 L 406.078125 563.996094 C 406.316406 564.226562 406.574219 564.433594 406.855469 564.613281 C 407.132812 564.792969 407.429688 564.945312 407.738281 565.070312 C 408.046875 565.191406 408.363281 565.285156 408.691406 565.347656 C 409.019531 565.40625 409.347656 565.4375 409.679688 565.433594 C 410.015625 565.429688 410.34375 565.394531 410.667969 565.328125 C 410.996094 565.261719 411.3125 565.164062 411.617188 565.035156 C 411.925781 564.90625 412.21875 564.75 412.492188 564.5625 C 412.769531 564.378906 413.027344 564.167969 413.261719 563.933594 C 413.496094 563.699219 413.707031 563.441406 413.890625 563.164062 C 414.078125 562.890625 414.234375 562.597656 414.363281 562.292969 C 414.492188 561.984375 414.589844 561.667969 414.65625 561.34375 C 414.722656 561.015625 414.757812 560.6875 414.761719 560.355469 C 414.765625 560.019531 414.734375 559.691406 414.675781 559.363281 C 414.613281 559.039062 414.519531 558.71875 414.398438 558.410156 C 414.273438 558.101562 414.121094 557.808594 413.941406 557.527344 C 413.761719 557.246094 413.554688 556.988281 413.324219 556.75 L 391.320312 534.746094 L 413.324219 512.746094 C 413.5625 512.507812 413.773438 512.25 413.960938 511.96875 C 414.148438 511.6875 414.304688 511.394531 414.433594 511.082031 C 414.5625 510.773438 414.660156 510.453125 414.726562 510.121094 C 414.792969 509.792969 414.824219 509.457031 414.824219 509.121094 C 414.824219 508.785156 414.792969 508.453125 414.726562 508.121094 C 414.660156 507.792969 414.5625 507.472656 414.433594 507.160156 C 414.304688 506.851562 414.148438 506.554688 413.960938 506.277344 C 413.773438 505.996094 413.5625 505.738281 413.324219 505.5 Z M 413.324219 505.5 "/><g clip-rule="nonzero" clip-path="url(#2591fbd6d1)"><path style=" stroke:none;fill-rule:nonzero;fill:#000000;fill-opacity:1;" d="M 384.074219 457.871094 C 382.816406 457.871094 381.558594 457.902344 380.304688 457.964844 C 379.046875 458.027344 377.792969 458.121094 376.539062 458.242188 C 375.289062 458.367188 374.039062 458.519531 372.796875 458.703125 C 371.550781 458.890625 370.3125 459.105469 369.078125 459.347656 C 367.84375 459.59375 366.617188 459.871094 365.394531 460.175781 C 364.175781 460.480469 362.964844 460.816406 361.757812 461.183594 C 360.554688 461.546875 359.359375 461.941406 358.175781 462.367188 C 356.992188 462.789062 355.820312 463.242188 354.65625 463.722656 C 353.492188 464.207031 352.34375 464.714844 351.207031 465.253906 C 350.070312 465.792969 348.945312 466.355469 347.835938 466.949219 C 346.726562 467.542969 345.632812 468.164062 344.554688 468.808594 C 343.472656 469.457031 342.410156 470.128906 341.367188 470.828125 C 340.320312 471.527344 339.292969 472.25 338.28125 473 C 337.269531 473.75 336.277344 474.523438 335.304688 475.320312 C 334.332031 476.121094 333.382812 476.941406 332.449219 477.785156 C 331.515625 478.632812 330.605469 479.5 329.714844 480.386719 C 328.828125 481.277344 327.960938 482.1875 327.113281 483.121094 C 326.269531 484.054688 325.449219 485.007812 324.648438 485.976562 C 323.851562 486.949219 323.078125 487.941406 322.328125 488.953125 C 321.578125 489.964844 320.855469 490.992188 320.15625 492.039062 C 319.457031 493.085938 318.785156 494.148438 318.136719 495.226562 C 317.492188 496.304688 316.871094 497.398438 316.277344 498.507812 C 315.683594 499.617188 315.117188 500.742188 314.582031 501.878906 C 314.042969 503.015625 313.535156 504.167969 313.050781 505.328125 C 312.570312 506.492188 312.117188 507.664062 311.695312 508.847656 C 311.269531 510.035156 310.875 511.226562 310.511719 512.433594 C 310.144531 513.636719 309.808594 514.847656 309.503906 516.066406 C 309.199219 517.289062 308.921875 518.515625 308.675781 519.75 C 308.433594 520.984375 308.214844 522.222656 308.03125 523.46875 C 307.847656 524.710938 307.695312 525.960938 307.570312 527.210938 C 307.445312 528.464844 307.355469 529.71875 307.292969 530.976562 C 307.230469 532.230469 307.199219 533.488281 307.199219 534.746094 C 307.199219 536.003906 307.230469 537.261719 307.292969 538.519531 C 307.355469 539.777344 307.445312 541.03125 307.570312 542.28125 C 307.695312 543.535156 307.847656 544.78125 308.03125 546.027344 C 308.214844 547.273438 308.433594 548.511719 308.675781 549.746094 C 308.921875 550.980469 309.199219 552.207031 309.503906 553.425781 C 309.808594 554.648438 310.144531 555.859375 310.511719 557.0625 C 310.875 558.265625 311.269531 559.460938 311.695312 560.644531 C 312.117188 561.832031 312.570312 563.003906 313.050781 564.167969 C 313.535156 565.328125 314.042969 566.476562 314.582031 567.617188 C 315.117188 568.753906 315.683594 569.875 316.277344 570.984375 C 316.871094 572.09375 317.492188 573.191406 318.136719 574.269531 C 318.785156 575.347656 319.457031 576.410156 320.15625 577.457031 C 320.855469 578.503906 321.578125 579.53125 322.328125 580.542969 C 323.078125 581.550781 323.851562 582.542969 324.648438 583.515625 C 325.449219 584.488281 326.269531 585.441406 327.113281 586.375 C 327.960938 587.304688 328.828125 588.214844 329.714844 589.105469 C 330.605469 589.996094 331.515625 590.863281 332.449219 591.707031 C 333.382812 592.554688 334.332031 593.375 335.304688 594.171875 C 336.277344 594.96875 337.269531 595.746094 338.28125 596.492188 C 339.292969 597.242188 340.320312 597.96875 341.367188 598.667969 C 342.410156 599.367188 343.472656 600.039062 344.554688 600.683594 C 345.632812 601.332031 346.726562 601.953125 347.835938 602.546875 C 348.945312 603.136719 350.070312 603.703125 351.207031 604.242188 C 352.34375 604.78125 353.492188 605.289062 354.65625 605.769531 C 355.820312 606.253906 356.992188 606.703125 358.175781 607.128906 C 359.359375 607.550781 360.554688 607.945312 361.757812 608.3125 C 362.964844 608.675781 364.175781 609.011719 365.394531 609.320312 C 366.617188 609.625 367.84375 609.898438 369.078125 610.144531 C 370.3125 610.390625 371.550781 610.605469 372.796875 610.789062 C 374.039062 610.976562 375.289062 611.128906 376.539062 611.253906 C 377.792969 611.375 379.046875 611.46875 380.304688 611.53125 C 381.558594 611.589844 382.816406 611.621094 384.074219 611.621094 C 385.332031 611.621094 386.589844 611.589844 387.847656 611.53125 C 389.105469 611.46875 390.359375 611.375 391.609375 611.253906 C 392.863281 611.128906 394.109375 610.976562 395.355469 610.789062 C 396.597656 610.605469 397.839844 610.390625 399.074219 610.144531 C 400.304688 609.898438 401.535156 609.625 402.753906 609.320312 C 403.972656 609.011719 405.1875 608.675781 406.390625 608.3125 C 407.59375 607.945312 408.789062 607.550781 409.972656 607.128906 C 411.15625 606.703125 412.332031 606.253906 413.492188 605.769531 C 414.65625 605.289062 415.804688 604.78125 416.941406 604.242188 C 418.082031 603.703125 419.203125 603.136719 420.3125 602.546875 C 421.421875 601.953125 422.515625 601.332031 423.597656 600.683594 C 424.675781 600.039062 425.738281 599.367188 426.785156 598.667969 C 427.832031 597.96875 428.859375 597.242188 429.871094 596.492188 C 430.878906 595.746094 431.871094 594.96875 432.84375 594.171875 C 433.816406 593.375 434.769531 592.554688 435.699219 591.707031 C 436.632812 590.863281 437.542969 589.996094 438.433594 589.105469 C 439.324219 588.214844 440.191406 587.304688 441.035156 586.375 C 441.878906 585.441406 442.703125 584.488281 443.5 583.515625 C 444.296875 582.542969 445.070312 581.550781 445.820312 580.542969 C 446.570312 579.53125 447.296875 578.503906 447.996094 577.457031 C 448.691406 576.410156 449.367188 575.347656 450.011719 574.269531 C 450.660156 573.191406 451.28125 572.09375 451.871094 570.984375 C 452.464844 569.875 453.03125 568.753906 453.570312 567.617188 C 454.105469 566.476562 454.617188 565.328125 455.097656 564.167969 C 455.578125 563.003906 456.03125 561.832031 456.457031 560.644531 C 456.878906 559.460938 457.273438 558.265625 457.640625 557.0625 C 458.003906 555.859375 458.339844 554.648438 458.644531 553.425781 C 458.953125 552.207031 459.226562 550.980469 459.472656 549.746094 C 459.71875 548.511719 459.933594 547.273438 460.117188 546.027344 C 460.300781 544.78125 460.457031 543.535156 460.578125 542.28125 C 460.703125 541.03125 460.796875 539.777344 460.855469 538.519531 C 460.917969 537.261719 460.949219 536.003906 460.949219 534.746094 C 460.949219 533.488281 460.917969 532.234375 460.851562 530.976562 C 460.789062 529.71875 460.695312 528.464844 460.570312 527.214844 C 460.449219 525.964844 460.292969 524.714844 460.105469 523.472656 C 459.921875 522.226562 459.703125 520.988281 459.457031 519.753906 C 459.210938 518.523438 458.9375 517.296875 458.628906 516.074219 C 458.324219 514.855469 457.984375 513.644531 457.621094 512.441406 C 457.253906 511.238281 456.859375 510.042969 456.433594 508.859375 C 456.011719 507.675781 455.558594 506.503906 455.074219 505.34375 C 454.59375 504.179688 454.082031 503.03125 453.542969 501.894531 C 453.007812 500.757812 452.441406 499.636719 451.847656 498.527344 C 451.253906 497.417969 450.632812 496.324219 449.988281 495.246094 C 449.339844 494.167969 448.667969 493.105469 447.96875 492.058594 C 447.269531 491.011719 446.542969 489.984375 445.792969 488.976562 C 445.046875 487.964844 444.273438 486.972656 443.472656 486 C 442.675781 485.03125 441.855469 484.078125 441.007812 483.144531 C 440.164062 482.214844 439.296875 481.304688 438.410156 480.414062 C 437.519531 479.523438 436.609375 478.65625 435.675781 477.8125 C 434.746094 476.96875 433.792969 476.148438 432.820312 475.347656 C 431.847656 474.550781 430.855469 473.777344 429.847656 473.027344 C 428.835938 472.277344 427.808594 471.554688 426.765625 470.855469 C 425.71875 470.15625 424.65625 469.484375 423.578125 468.835938 C 422.5 468.1875 421.40625 467.570312 420.296875 466.976562 C 419.1875 466.382812 418.066406 465.816406 416.929688 465.277344 C 415.792969 464.738281 414.640625 464.230469 413.480469 463.746094 C 412.320312 463.265625 411.144531 462.8125 409.960938 462.386719 C 408.777344 461.964844 407.585938 461.566406 406.382812 461.203125 C 405.175781 460.835938 403.964844 460.5 402.746094 460.195312 C 401.527344 459.886719 400.300781 459.609375 399.066406 459.363281 C 397.832031 459.117188 396.59375 458.902344 395.351562 458.714844 C 394.105469 458.53125 392.859375 458.375 391.605469 458.25 C 390.355469 458.125 389.101562 458.03125 387.847656 457.96875 C 386.589844 457.90625 385.332031 457.875 384.074219 457.871094 Z M 384.074219 601.371094 C 382.984375 601.371094 381.894531 601.34375 380.804688 601.292969 C 379.71875 601.238281 378.628906 601.160156 377.542969 601.050781 C 376.460938 600.945312 375.378906 600.8125 374.300781 600.652344 C 373.21875 600.492188 372.148438 600.304688 371.078125 600.09375 C 370.007812 599.878906 368.945312 599.640625 367.886719 599.375 C 366.828125 599.109375 365.777344 598.820312 364.734375 598.503906 C 363.691406 598.1875 362.65625 597.84375 361.628906 597.476562 C 360.601562 597.109375 359.585938 596.71875 358.578125 596.300781 C 357.570312 595.882812 356.574219 595.441406 355.589844 594.976562 C 354.601562 594.507812 353.628906 594.019531 352.667969 593.503906 C 351.707031 592.992188 350.757812 592.453125 349.824219 591.894531 C 348.886719 591.332031 347.964844 590.75 347.058594 590.144531 C 346.152344 589.539062 345.261719 588.910156 344.386719 588.261719 C 343.511719 587.613281 342.652344 586.941406 341.808594 586.25 C 340.964844 585.558594 340.140625 584.84375 339.332031 584.113281 C 338.523438 583.382812 337.734375 582.628906 336.964844 581.859375 C 336.191406 581.085938 335.441406 580.296875 334.710938 579.488281 C 333.976562 578.683594 333.265625 577.855469 332.574219 577.015625 C 331.882812 576.171875 331.210938 575.3125 330.5625 574.4375 C 329.910156 573.558594 329.285156 572.667969 328.679688 571.761719 C 328.074219 570.855469 327.488281 569.933594 326.929688 569 C 326.367188 568.0625 325.832031 567.117188 325.316406 566.152344 C 324.804688 565.191406 324.3125 564.21875 323.847656 563.234375 C 323.378906 562.246094 322.9375 561.25 322.523438 560.242188 C 322.105469 559.234375 321.710938 558.21875 321.34375 557.191406 C 320.976562 556.167969 320.636719 555.132812 320.320312 554.085938 C 320.003906 553.042969 319.710938 551.992188 319.445312 550.9375 C 319.183594 549.878906 318.941406 548.816406 318.730469 547.746094 C 318.515625 546.675781 318.332031 545.601562 318.171875 544.523438 C 318.011719 543.445312 317.878906 542.363281 317.769531 541.277344 C 317.664062 540.191406 317.582031 539.105469 317.53125 538.015625 C 317.476562 536.925781 317.449219 535.835938 317.449219 534.746094 C 317.449219 533.65625 317.476562 532.566406 317.53125 531.476562 C 317.582031 530.390625 317.664062 529.300781 317.769531 528.21875 C 317.878906 527.132812 318.011719 526.050781 318.171875 524.972656 C 318.332031 523.894531 318.515625 522.820312 318.730469 521.75 C 318.941406 520.679688 319.183594 519.617188 319.445312 518.558594 C 319.710938 517.5 320.003906 516.449219 320.320312 515.40625 C 320.636719 514.363281 320.976562 513.328125 321.34375 512.300781 C 321.710938 511.277344 322.105469 510.257812 322.523438 509.25 C 322.9375 508.242188 323.378906 507.246094 323.847656 506.261719 C 324.3125 505.277344 324.804688 504.300781 325.316406 503.339844 C 325.832031 502.378906 326.367188 501.429688 326.929688 500.496094 C 327.488281 499.558594 328.074219 498.640625 328.679688 497.734375 C 329.285156 496.824219 329.910156 495.933594 330.5625 495.058594 C 331.210938 494.183594 331.882812 493.324219 332.574219 492.480469 C 333.265625 491.636719 333.976562 490.8125 334.710938 490.003906 C 335.441406 489.195312 336.191406 488.40625 336.964844 487.636719 C 337.734375 486.867188 338.523438 486.113281 339.332031 485.382812 C 340.140625 484.648438 340.964844 483.9375 341.808594 483.246094 C 342.652344 482.554688 343.511719 481.882812 344.386719 481.234375 C 345.261719 480.585938 346.152344 479.957031 347.058594 479.351562 C 347.964844 478.746094 348.886719 478.160156 349.824219 477.601562 C 350.757812 477.039062 351.707031 476.503906 352.667969 475.988281 C 353.628906 475.476562 354.601562 474.984375 355.589844 474.519531 C 356.574219 474.054688 357.570312 473.609375 358.578125 473.195312 C 359.585938 472.777344 360.601562 472.382812 361.628906 472.015625 C 362.65625 471.648438 363.691406 471.308594 364.734375 470.992188 C 365.777344 470.675781 366.828125 470.382812 367.886719 470.117188 C 368.945312 469.855469 370.007812 469.617188 371.078125 469.402344 C 372.148438 469.191406 373.21875 469.003906 374.300781 468.84375 C 375.378906 468.683594 376.460938 468.550781 377.542969 468.441406 C 378.628906 468.335938 379.71875 468.257812 380.804688 468.203125 C 381.894531 468.148438 382.984375 468.121094 384.074219 468.121094 C 385.164062 468.121094 386.253906 468.148438 387.34375 468.203125 C 388.433594 468.257812 389.519531 468.335938 390.605469 468.441406 C 391.691406 468.550781 392.773438 468.683594 393.851562 468.84375 C 394.929688 469.003906 396.003906 469.191406 397.074219 469.402344 C 398.140625 469.617188 399.207031 469.855469 400.261719 470.117188 C 401.320312 470.382812 402.371094 470.675781 403.414062 470.992188 C 404.457031 471.308594 405.492188 471.648438 406.519531 472.015625 C 407.546875 472.382812 408.5625 472.777344 409.570312 473.195312 C 410.578125 473.609375 411.574219 474.054688 412.5625 474.519531 C 413.546875 474.984375 414.519531 475.476562 415.480469 475.988281 C 416.445312 476.503906 417.390625 477.039062 418.328125 477.601562 C 419.261719 478.160156 420.183594 478.746094 421.089844 479.351562 C 421.996094 479.957031 422.886719 480.585938 423.761719 481.234375 C 424.640625 481.882812 425.5 482.554688 426.339844 483.246094 C 427.183594 483.9375 428.007812 484.648438 428.816406 485.382812 C 429.625 486.113281 430.414062 486.867188 431.1875 487.636719 C 431.957031 488.40625 432.707031 489.195312 433.441406 490.003906 C 434.171875 490.8125 434.886719 491.636719 435.578125 492.480469 C 436.269531 493.324219 436.9375 494.183594 437.589844 495.058594 C 438.238281 495.933594 438.867188 496.824219 439.472656 497.734375 C 440.078125 498.640625 440.660156 499.558594 441.222656 500.496094 C 441.78125 501.429688 442.320312 502.378906 442.832031 503.339844 C 443.347656 504.300781 443.835938 505.277344 444.304688 506.261719 C 444.769531 507.246094 445.210938 508.242188 445.628906 509.25 C 446.046875 510.257812 446.4375 511.277344 446.804688 512.300781 C 447.171875 513.328125 447.515625 514.363281 447.832031 515.40625 C 448.148438 516.449219 448.4375 517.5 448.703125 518.558594 C 448.96875 519.617188 449.207031 520.679688 449.417969 521.75 C 449.632812 522.820312 449.820312 523.894531 449.980469 524.972656 C 450.140625 526.050781 450.273438 527.132812 450.378906 528.21875 C 450.484375 529.300781 450.566406 530.390625 450.621094 531.476562 C 450.671875 532.566406 450.699219 533.65625 450.699219 534.746094 C 450.699219 535.835938 450.671875 536.925781 450.617188 538.015625 C 450.5625 539.105469 450.480469 540.191406 450.371094 541.273438 C 450.265625 542.359375 450.128906 543.441406 449.96875 544.519531 C 449.808594 545.597656 449.621094 546.671875 449.40625 547.738281 C 449.195312 548.808594 448.953125 549.871094 448.6875 550.929688 C 448.421875 551.984375 448.132812 553.035156 447.8125 554.078125 C 447.496094 555.121094 447.152344 556.15625 446.785156 557.183594 C 446.417969 558.207031 446.027344 559.226562 445.609375 560.230469 C 445.191406 561.238281 444.75 562.234375 444.28125 563.21875 C 443.816406 564.203125 443.324219 565.179688 442.808594 566.140625 C 442.296875 567.101562 441.757812 568.046875 441.199219 568.984375 C 440.636719 569.917969 440.054688 570.839844 439.449219 571.742188 C 438.84375 572.648438 438.214844 573.539062 437.566406 574.417969 C 436.914062 575.292969 436.246094 576.152344 435.554688 576.992188 C 434.863281 577.835938 434.148438 578.660156 433.417969 579.46875 C 432.6875 580.277344 431.933594 581.066406 431.164062 581.835938 C 430.394531 582.605469 429.605469 583.359375 428.796875 584.089844 C 427.988281 584.820312 427.164062 585.535156 426.320312 586.226562 C 425.476562 586.917969 424.621094 587.585938 423.742188 588.238281 C 422.867188 588.886719 421.976562 589.515625 421.070312 590.121094 C 420.164062 590.726562 419.246094 591.308594 418.308594 591.871094 C 417.375 592.429688 416.425781 592.96875 415.464844 593.484375 C 414.503906 593.996094 413.53125 594.488281 412.546875 594.953125 C 411.5625 595.421875 410.566406 595.863281 409.558594 596.28125 C 408.550781 596.699219 407.535156 597.089844 406.511719 597.457031 C 405.484375 597.828125 404.449219 598.167969 403.40625 598.484375 C 402.363281 598.804688 401.3125 599.09375 400.257812 599.359375 C 399.199219 599.625 398.136719 599.867188 397.066406 600.078125 C 396 600.292969 394.925781 600.480469 393.847656 600.640625 C 392.769531 600.800781 391.6875 600.9375 390.601562 601.042969 C 389.519531 601.152344 388.433594 601.234375 387.34375 601.289062 C 386.253906 601.34375 385.164062 601.371094 384.074219 601.371094 Z M 384.074219 601.371094 "/></g></g></svg>