<svg width="20" height="20" viewBox="0 0 20 20" fill="none" xmlns="http://www.w3.org/2000/svg">
<path d="M13.64 7.36C13.8085 7.53037 13.9031 7.76035 13.9031 8C13.9031 8.23965 13.8085 8.46963 13.64 8.64L9.64 12.64C9.46963 12.8085 9.23965 12.9031 9 12.9031C8.76034 12.9031 8.53036 12.8085 8.36 12.64L6.36 10.64C6.21824 10.4653 6.14625 10.2442 6.15793 10.0195C6.16961 9.79476 6.26413 9.58235 6.42324 9.42324C6.58235 9.26413 6.79476 9.16961 7.01947 9.15794C7.24418 9.14626 7.46525 9.21824 7.64 9.36L9 10.73L12.36 7.36C12.5304 7.19145 12.7603 7.09692 13 7.09692C13.2396 7.09692 13.4696 7.19145 13.64 7.36ZM20 10C20 11.9778 19.4135 13.9112 18.3147 15.5557C17.2159 17.2002 15.6541 18.4819 13.8268 19.2388C11.9996 19.9957 9.9889 20.1937 8.04909 19.8079C6.10928 19.422 4.32745 18.4696 2.92893 17.0711C1.5304 15.6725 0.577996 13.8907 0.192144 11.9509C-0.193708 10.0111 0.00432521 8.00043 0.761202 6.17317C1.51808 4.3459 2.7998 2.78412 4.44429 1.6853C6.08879 0.58649 8.02218 0 10 0C11.3132 0 12.6136 0.258658 13.8268 0.761205C15.0401 1.26375 16.1425 2.00035 17.0711 2.92893C17.9996 3.85752 18.7362 4.95991 19.2388 6.17317C19.7413 7.38642 20 8.68678 20 10ZM18 10C18 8.41775 17.5308 6.87103 16.6518 5.55544C15.7727 4.23984 14.5233 3.21447 13.0615 2.60896C11.5997 2.00346 9.99112 1.84504 8.43927 2.15372C6.88743 2.4624 5.46196 3.22433 4.34314 4.34315C3.22432 5.46197 2.4624 6.88743 2.15371 8.43928C1.84503 9.99113 2.00346 11.5997 2.60896 13.0615C3.21446 14.5233 4.23984 15.7727 5.55543 16.6518C6.87103 17.5308 8.41775 18 10 18C12.1217 18 14.1566 17.1571 15.6569 15.6569C17.1571 14.1566 18 12.1217 18 10Z" fill="#222221"/>
</svg>
