<svg xmlns="http://www.w3.org/2000/svg" xmlns:xlink="http://www.w3.org/1999/xlink" width="500" zoomAndPan="magnify" viewBox="0 0 375 187.499995" height="250" preserveAspectRatio="xMidYMid meet" version="1.2"><defs><clipPath id="55d276a313"><path d="M 122.074219 13.089844 L 267.742188 13.089844 L 267.742188 158.757812 L 122.074219 158.757812 Z M 122.074219 13.089844 "/></clipPath><clipPath id="3a027443ad"><path d="M 194.90625 13.089844 C 154.683594 13.089844 122.074219 45.699219 122.074219 85.925781 C 122.074219 126.148438 154.683594 158.757812 194.90625 158.757812 C 235.132812 158.757812 267.742188 126.148438 267.742188 85.925781 C 267.742188 45.699219 235.132812 13.089844 194.90625 13.089844 Z M 194.90625 13.089844 "/></clipPath><clipPath id="3b95f1d9a8"><path d="M 81 40 L 239 40 L 239 151 L 81 151 Z M 81 40 "/></clipPath><clipPath id="54254c2805"><path d="M 66.515625 79.289062 L 211.070312 28.125 L 243.761719 120.5 L 99.207031 171.660156 Z M 66.515625 79.289062 "/></clipPath><clipPath id="7d337c196f"><path d="M 66.515625 79.289062 L 211.070312 28.125 L 243.761719 120.5 L 99.207031 171.660156 Z M 66.515625 79.289062 "/></clipPath><clipPath id="df70a1cdfa"><path d="M 151 21 L 309 21 L 309 132 L 151 132 Z M 151 21 "/></clipPath><clipPath id="24490883d9"><path d="M 323.292969 92.5625 L 178.738281 143.722656 L 146.046875 51.351562 L 290.601562 0.1875 Z M 323.292969 92.5625 "/></clipPath><clipPath id="f02be098f6"><path d="M 323.292969 92.5625 L 178.738281 143.722656 L 146.046875 51.351562 L 290.601562 0.1875 Z M 323.292969 92.5625 "/></clipPath><clipPath id="367b2a0585"><path d="M 128.972656 19.992188 L 260.625 19.992188 L 260.625 151.640625 L 128.972656 151.640625 Z M 128.972656 19.992188 "/></clipPath><clipPath id="1a3dca9788"><path d="M 194.800781 19.992188 C 158.445312 19.992188 128.972656 49.464844 128.972656 85.816406 C 128.972656 122.171875 158.445312 151.640625 194.800781 151.640625 C 231.152344 151.640625 260.625 122.171875 260.625 85.816406 C 260.625 49.464844 231.152344 19.992188 194.800781 19.992188 Z M 194.800781 19.992188 "/></clipPath><clipPath id="d59e858ecd"><path d="M 138.273438 29.363281 L 251.222656 29.363281 L 251.222656 142.308594 L 138.273438 142.308594 Z M 138.273438 29.363281 "/></clipPath><clipPath id="c907a1aefb"><path d="M 58.191406 34.660156 L 97.832031 34.660156 L 97.832031 72 L 58.191406 72 Z M 58.191406 34.660156 "/></clipPath></defs><g id="31d0eedc64"><g clip-rule="nonzero" clip-path="url(#55d276a313)"><g clip-rule="nonzero" clip-path="url(#3a027443ad)"><path style=" stroke:none;fill-rule:nonzero;fill:#222222;fill-opacity:1;" d="M 122.074219 13.089844 L 267.742188 13.089844 L 267.742188 158.757812 L 122.074219 158.757812 Z M 122.074219 13.089844 "/></g></g><g clip-rule="nonzero" clip-path="url(#3b95f1d9a8)"><g clip-rule="nonzero" clip-path="url(#54254c2805)"><g clip-rule="nonzero" clip-path="url(#7d337c196f)"><path style=" stroke:none;fill-rule:nonzero;fill:#222222;fill-opacity:1;" d="M 196.871094 130.890625 C 155.894531 145.390625 116.234375 138.9375 108.28125 116.472656 C 100.332031 94.011719 127.101562 64.042969 168.082031 49.539062 C 184.667969 43.667969 201.039062 41.234375 215.179688 41.902344 C 196.972656 38.9375 174.074219 41.21875 150.800781 49.457031 C 104.269531 65.925781 73.871094 99.953125 82.898438 125.460938 C 91.925781 150.96875 136.964844 158.296875 183.492188 141.832031 C 206.785156 133.585938 226.039062 120.941406 238.324219 107.164062 C 227.75 116.59375 213.476562 125.011719 196.871094 130.890625 Z M 196.871094 130.890625 "/></g></g></g><g clip-rule="nonzero" clip-path="url(#df70a1cdfa)"><g clip-rule="nonzero" clip-path="url(#24490883d9)"><g clip-rule="nonzero" clip-path="url(#f02be098f6)"><path style=" stroke:none;fill-rule:nonzero;fill:#222222;fill-opacity:1;" d="M 192.9375 40.960938 C 233.914062 26.457031 273.574219 32.910156 281.527344 55.375 C 289.476562 77.839844 262.707031 107.808594 221.726562 122.308594 C 205.140625 128.179688 188.769531 130.617188 174.628906 129.945312 C 192.835938 132.914062 215.734375 130.628906 239.007812 122.394531 C 285.535156 105.925781 315.9375 71.894531 306.910156 46.386719 C 297.882812 20.882812 252.84375 13.550781 206.316406 30.019531 C 183.023438 38.261719 163.769531 50.910156 151.484375 64.683594 C 162.058594 55.253906 176.332031 46.835938 192.9375 40.960938 Z M 192.9375 40.960938 "/></g></g></g><g clip-rule="nonzero" clip-path="url(#367b2a0585)"><g clip-rule="nonzero" clip-path="url(#1a3dca9788)"><path style="fill:none;stroke-width:2;stroke-linecap:butt;stroke-linejoin:miter;stroke:#ffffff;stroke-opacity:1;stroke-miterlimit:4;" d="M 88.142925 -0.000539258 C 39.462031 -0.000539258 -0.00260276 39.464094 -0.00260276 88.139758 C -0.00260276 136.820651 39.462031 176.280054 88.142925 176.280054 C 136.818588 176.280054 176.283221 136.820651 176.283221 88.139758 C 176.283221 39.464094 136.818588 -0.000539258 88.142925 -0.000539258 Z M 88.142925 -0.000539258 " transform="matrix(0.746812,0,0,0.746812,128.9746,19.99259)"/></g></g><g clip-rule="nonzero" clip-path="url(#d59e858ecd)"><path style=" stroke:none;fill-rule:nonzero;fill:#ffffff;fill-opacity:1;" d="M 194.667969 29.363281 C 163.914062 29.359375 138.34375 54.6875 138.332031 85.164062 C 138.320312 116.984375 163.253906 142.167969 194.769531 142.171875 C 225.847656 142.171875 251.113281 116.921875 251.148438 85.824219 C 251.1875 54.753906 225.785156 29.363281 194.667969 29.363281 Z M 240.121094 79.808594 C 240.101562 79.710938 240.089844 79.609375 240.070312 79.507812 C 239.914062 78.730469 239.226562 77.589844 239.695312 77.261719 C 240.375 76.78125 241.300781 77.664062 242.125 77.945312 C 242.695312 78.136719 243.199219 78.515625 243.761719 78.742188 C 244.570312 79.074219 245.082031 79.527344 244.691406 80.414062 C 244.535156 84.335938 244.132812 88.160156 243.269531 91.925781 C 243.191406 92.273438 243.019531 92.609375 243.007812 92.953125 C 242.984375 93.582031 242.507812 93.769531 242.097656 93.757812 C 241.472656 93.742188 241.714844 93.136719 241.710938 92.796875 C 241.695312 88.40625 241.042969 84.089844 240.121094 79.808594 Z M 168.503906 125.09375 C 168.566406 124.960938 168.628906 124.828125 168.691406 124.695312 C 171.167969 125.042969 173.644531 125.386719 176.523438 125.792969 C 174.625 126.398438 173.121094 127.113281 171.554688 127.316406 C 169.996094 127.515625 169.53125 125.847656 168.503906 125.09375 Z M 170.609375 130.453125 C 171.5 131.855469 172.472656 133.210938 173.613281 134.894531 C 171.253906 133.980469 169.382812 132.980469 167.511719 131.980469 C 166.789062 131.59375 166.875 131.175781 167.34375 130.671875 C 167.550781 130.453125 167.757812 130.226562 167.988281 130.03125 C 169.5 128.738281 169.546875 128.769531 170.609375 130.453125 Z M 168.910156 124.015625 C 168.265625 123.890625 167.976562 123.550781 167.769531 122.972656 C 166.121094 118.351562 165.109375 113.59375 164.574219 108.726562 C 164.402344 107.160156 164.355469 105.578125 164.195312 104.011719 C 164.109375 103.160156 164.304688 102.722656 165.253906 102.585938 C 167.464844 102.265625 169.671875 101.90625 171.847656 101.414062 C 172.980469 101.15625 173.257812 101.707031 173.445312 102.554688 C 174.191406 105.910156 175.191406 109.195312 176.304688 112.441406 C 177.570312 116.132812 179.015625 119.753906 180.785156 123.238281 C 181.648438 124.9375 181.625 124.949219 179.78125 125.296875 C 179.535156 125.34375 179.285156 125.382812 179.089844 125.417969 C 175.648438 124.992188 172.261719 124.648438 168.910156 124.015625 Z M 147.710938 78.789062 C 147.8125 81.488281 147.917969 84.183594 148.421875 86.847656 C 148.835938 89.042969 149.277344 91.230469 149.6875 93.429688 C 149.746094 93.757812 150.125 94.117188 149.789062 94.417969 C 149.488281 94.683594 149.140625 94.417969 148.816406 94.273438 C 147.804688 93.8125 146.785156 93.359375 145.75 92.949219 C 144.855469 92.59375 144.480469 91.988281 144.710938 91.039062 C 144.96875 87.050781 145.390625 83.078125 146.269531 79.167969 C 146.3125 78.972656 146.441406 78.796875 146.488281 78.601562 C 146.597656 78.144531 146.875 77.84375 147.34375 77.914062 C 147.84375 77.988281 147.699219 78.46875 147.710938 78.789062 Z M 148.347656 74.121094 C 148.234375 71.128906 149.890625 68.449219 151.117188 65.632812 C 151.34375 65.113281 151.660156 65.035156 152.203125 65.300781 C 156.703125 67.496094 161.492188 68.789062 166.371094 69.804688 C 166.742188 69.882812 167.539062 69.664062 167.421875 70.539062 C 167.335938 71.199219 167.273438 71.765625 166.355469 71.929688 C 161.933594 72.722656 157.503906 73.519531 153.210938 74.902344 C 152.054688 75.273438 150.851562 75.546875 149.765625 76.066406 C 148.390625 76.730469 148.222656 76.125 148.34375 74.980469 C 148.367188 74.777344 148.347656 74.570312 148.347656 74.121094 Z M 220.851562 46.949219 C 218.34375 46.582031 215.914062 46.230469 213.484375 45.875 C 213.488281 45.792969 213.492188 45.710938 213.496094 45.628906 C 214.839844 45.195312 216.175781 44.753906 217.519531 44.339844 C 218.617188 44.003906 219.992188 45.058594 220.851562 46.949219 Z M 218.742188 41.023438 C 217.886719 39.675781 216.957031 38.375 215.878906 36.78125 C 218.273438 37.628906 220.214844 38.683594 222.136719 39.777344 C 222.609375 40.042969 222.5625 40.414062 222.214844 40.777344 C 222.039062 40.960938 221.878906 41.164062 221.699219 41.339844 C 220.101562 42.890625 219.90625 42.851562 218.742188 41.023438 Z M 220.402344 47.566406 C 221.128906 47.691406 221.429688 48.011719 221.660156 48.652344 C 223.382812 53.402344 224.382812 58.3125 224.910156 63.328125 C 225.066406 64.792969 225.105469 66.269531 225.257812 67.734375 C 225.335938 68.488281 225.070312 68.882812 224.34375 69.011719 C 221.945312 69.433594 219.539062 69.835938 217.152344 70.308594 C 216.164062 70.5 216.175781 69.726562 216.058594 69.230469 C 215.25 65.789062 214.242188 62.40625 213.09375 59.066406 C 211.828125 55.382812 210.378906 51.773438 208.609375 48.296875 C 207.730469 46.5625 207.785156 46.492188 209.667969 46.371094 C 210.125 46.339844 210.582031 46.328125 211.015625 46.308594 C 214.179688 46.597656 217.296875 47.039062 220.402344 47.566406 Z M 233.304688 66.515625 C 231.316406 67.132812 229.320312 67.71875 227.332031 68.320312 C 226.117188 68.691406 225.914062 68.21875 225.863281 67.234375 C 225.640625 62.699219 224.996094 58.226562 223.894531 53.824219 C 223.4375 52.019531 222.867188 50.242188 222.351562 48.449219 C 224.472656 50 226.023438 52 227.550781 54.019531 C 230.074219 57.359375 232.179688 60.953125 234.113281 64.664062 C 234.691406 65.773438 234.457031 66.160156 233.304688 66.515625 Z M 235.25 67.152344 C 236.382812 69.84375 237.511719 72.539062 238.316406 75.664062 C 234.304688 74.425781 230.578125 73.355469 226.738281 72.773438 C 226.402344 72.722656 226.207031 72.554688 226.085938 72.230469 C 225.464844 70.527344 226.132812 69.222656 227.910156 68.789062 C 229.980469 68.28125 232.007812 67.644531 234.003906 66.898438 C 234.457031 66.730469 234.941406 66.414062 235.25 67.152344 Z M 225.339844 77.019531 C 224.949219 84.148438 223.871094 91.15625 222.140625 98.074219 C 221.863281 99.1875 221.054688 99.398438 220.222656 99.34375 C 219.3125 99.285156 219.65625 98.390625 219.65625 97.867188 C 219.671875 89.574219 218.691406 81.394531 216.925781 73.300781 C 216.742188 72.445312 216.792969 71.847656 218.011719 72.066406 C 220.199219 72.457031 222.410156 72.71875 224.613281 73.023438 C 225.292969 73.117188 225.367188 73.550781 225.347656 74.121094 C 225.316406 75.085938 225.339844 76.054688 225.339844 77.019531 Z M 220.527344 101.308594 C 220.191406 101.199219 219.59375 101.394531 219.691406 100.734375 C 219.800781 100.019531 220.410156 99.980469 220.976562 99.953125 C 221.320312 99.9375 221.578125 100.046875 221.476562 100.503906 C 221.292969 100.902344 221.308594 101.5625 220.527344 101.308594 Z M 220.839844 102.671875 C 220.539062 103.511719 220.246094 104.359375 219.949219 105.203125 C 219.847656 105.199219 219.746094 105.191406 219.644531 105.183594 C 219.644531 104.277344 219.644531 103.371094 219.644531 102.464844 C 219.644531 101.992188 219.859375 101.847656 220.316406 101.980469 C 220.679688 102.085938 221.023438 102.160156 220.839844 102.671875 Z M 199.417969 99.371094 C 198.335938 99.402344 198.5 98.628906 198.539062 98 C 198.800781 93.933594 198.855469 89.859375 199.136719 85.785156 C 199.136719 81.714844 199.160156 77.640625 199.117188 73.566406 C 199.109375 72.664062 199.347656 72.382812 200.296875 72.320312 C 204.152344 72.058594 208.03125 72.082031 211.863281 71.5 C 212.0625 71.472656 212.269531 71.488281 212.472656 71.488281 C 215.625 71.441406 215.835938 71.558594 216.480469 74.601562 C 217.5 79.40625 218.089844 84.273438 218.550781 89.167969 C 218.835938 92.164062 218.625 95.175781 219.089844 98.148438 C 219.269531 99.316406 218.703125 99.574219 217.667969 99.738281 C 211.554688 100.726562 205.503906 99.195312 199.417969 99.371094 Z M 207.480469 100.335938 C 204.800781 100.722656 202.128906 101.066406 199.433594 100.933594 C 199.066406 100.917969 198.535156 101.082031 198.554688 100.417969 C 198.566406 99.894531 199 99.9375 199.339844 99.953125 C 202.054688 100.070312 204.765625 100.207031 207.480469 100.335938 Z M 197.996094 98.109375 C 198.015625 99.050781 197.652344 99.351562 196.726562 99.304688 C 195.253906 99.226562 193.769531 99.195312 192.296875 99.277344 C 191.238281 99.335938 190.878906 99.03125 190.894531 97.929688 C 190.953125 93.855469 191.511719 77.550781 191.472656 73.472656 C 191.464844 72.597656 191.753906 72.320312 192.613281 72.359375 C 194.035156 72.421875 195.472656 72.464844 196.890625 72.359375 C 198.152344 72.269531 198.578125 72.648438 198.519531 73.957031 C 198.226562 80.476562 198.445312 87.003906 198.0625 93.523438 C 197.972656 95.046875 197.96875 96.582031 197.996094 98.109375 Z M 188.96875 99.386719 C 184.492188 99.53125 180.019531 99.777344 175.550781 100.035156 C 173.984375 100.128906 173.40625 99.476562 173.085938 97.9375 C 171.488281 90.316406 170.792969 82.597656 170.398438 74.839844 C 170.253906 71.945312 170.304688 72.132812 173.152344 71.734375 C 176.078125 71.328125 178.9375 71.675781 181.820312 71.828125 C 184.234375 71.957031 187.15625 72.195312 189.660156 72.316406 C 190.054688 72.335938 190.367188 72.664062 190.367188 73.058594 L 190.367188 97.835938 C 190.382812 98.90625 190.167969 99.347656 188.96875 99.386719 Z M 189.46875 100.929688 C 186.910156 100.824219 184.351562 100.691406 181.796875 100.570312 C 181.796875 100.480469 181.796875 100.390625 181.796875 100.300781 C 184.363281 100.183594 186.929688 100.058594 189.496094 99.953125 C 189.820312 99.941406 190.261719 99.847656 190.304688 100.378906 C 190.351562 101.027344 189.84375 100.945312 189.46875 100.929688 Z M 164.007812 100.34375 C 163.921875 99.835938 163.796875 99.15625 164.765625 99.308594 C 166.453125 99.574219 168.152344 99.796875 169.84375 100.039062 C 170.585938 100.148438 171.328125 100.257812 172.070312 100.367188 C 172.085938 100.460938 172.101562 100.554688 172.121094 100.644531 C 169.613281 101.125 167.125 101.734375 164.597656 102.019531 C 163.613281 102.128906 164.109375 100.941406 164.007812 100.34375 Z M 171.199219 99.535156 C 169.183594 99.078125 167.117188 98.8125 165.058594 98.585938 C 164.050781 98.472656 163.949219 97.996094 164.050781 97.175781 C 164.164062 96.265625 164.191406 95.347656 164.257812 94.433594 C 164.484375 87.34375 165.59375 80.386719 167.300781 73.511719 C 167.570312 72.425781 168.222656 72.300781 169.066406 72.351562 C 170.03125 72.414062 169.695312 73.257812 169.75 73.761719 C 170.027344 76.390625 169.867188 79.035156 170.089844 81.683594 C 170.558594 87.246094 171.304688 92.753906 172.457031 98.207031 C 172.722656 99.457031 172.648438 99.867188 171.199219 99.535156 Z M 169.246094 69.695312 C 168.664062 69.625 168.449219 69.332031 168.652344 68.765625 C 168.949219 67.933594 169.246094 67.101562 169.542969 66.273438 C 169.644531 66.300781 169.742188 66.328125 169.84375 66.351562 C 169.84375 67.207031 169.847656 68.058594 169.839844 68.910156 C 169.835938 69.308594 169.894531 69.769531 169.246094 69.695312 Z M 168.863281 70.257812 C 169.304688 70.304688 169.675781 70.382812 169.660156 70.933594 C 169.636719 71.628906 169.128906 71.566406 168.671875 71.566406 C 168.332031 71.566406 167.882812 71.648438 167.980469 71.070312 C 168.0625 70.597656 168.246094 70.195312 168.863281 70.257812 Z M 190.019531 71.601562 C 187.285156 71.664062 184.570312 71.390625 181.851562 71.023438 C 184.597656 71.003906 187.3125 70.679688 190.039062 70.578125 C 190.410156 70.566406 190.933594 70.449219 190.921875 71.09375 C 190.910156 71.726562 190.398438 71.59375 190.019531 71.601562 Z M 197.183594 100.9375 C 196.21875 100.941406 195.253906 100.9375 194.289062 100.9375 C 194.289062 100.9375 194.289062 100.933594 194.289062 100.933594 C 193.375 100.933594 192.460938 100.9375 191.550781 100.929688 C 191.230469 100.925781 190.933594 100.851562 190.933594 100.4375 C 190.9375 100.023438 191.230469 99.941406 191.550781 99.941406 C 193.429688 99.933594 195.304688 99.9375 197.183594 99.941406 C 197.5 99.945312 197.8125 100.007812 197.796875 100.425781 C 197.785156 100.808594 197.523438 100.9375 197.183594 100.9375 Z M 197.71875 102.820312 C 197.445312 107.648438 197.214844 112.476562 196.9375 117.300781 C 196.824219 119.28125 196.59375 121.253906 196.488281 123.234375 C 196.449219 123.9375 196.261719 124.261719 195.519531 124.203125 C 194.964844 124.15625 194.402344 124.195312 193.839844 124.195312 C 191.269531 124.195312 191.238281 124.195312 191.203125 121.546875 C 191.167969 118.597656 190.921875 106.277344 190.878906 103.070312 C 190.863281 102.128906 191.058594 101.679688 192.125 101.738281 C 193.644531 101.828125 195.179688 101.804688 196.703125 101.757812 C 197.523438 101.730469 197.761719 102.035156 197.71875 102.820312 Z M 192.28125 70.578125 C 193.246094 70.574219 194.210938 70.578125 195.175781 70.578125 C 195.175781 70.574219 195.175781 70.574219 195.175781 70.570312 C 195.988281 70.570312 196.800781 70.558594 197.613281 70.578125 C 197.988281 70.585938 198.492188 70.472656 198.476562 71.117188 C 198.464844 71.601562 198.09375 71.65625 197.726562 71.683594 C 195.902344 71.816406 194.074219 71.78125 192.25 71.644531 C 191.945312 71.625 191.625 71.585938 191.601562 71.171875 C 191.570312 70.683594 191.890625 70.582031 192.28125 70.578125 Z M 199.183594 71.03125 C 199.234375 70.496094 199.671875 70.566406 199.992188 70.613281 C 202.300781 70.941406 204.632812 70.847656 206.9375 71.039062 C 204.636719 71.730469 202.300781 71.503906 199.992188 71.621094 C 199.589844 71.640625 199.121094 71.65625 199.183594 71.03125 Z M 225.339844 72.160156 C 225.257812 72.679688 224.773438 72.304688 224.457031 72.257812 C 221.917969 71.882812 219.378906 71.511719 216.46875 71.085938 C 219.355469 70.558594 221.878906 70.089844 224.402344 69.644531 C 224.722656 69.585938 225.226562 69.40625 225.296875 69.902344 C 225.40625 70.644531 225.457031 71.425781 225.339844 72.160156 Z M 215.394531 69.367188 C 215.609375 70.203125 215.308594 70.636719 214.421875 70.632812 C 213.8125 70.628906 213.203125 70.632812 212.589844 70.632812 C 208.425781 70.445312 204.277344 69.921875 200.097656 70.042969 C 199.371094 70.0625 199.117188 69.796875 199.128906 69.074219 C 199.246094 62.191406 198.9375 55.316406 198.78125 48.441406 C 198.761719 47.558594 199.078125 47.335938 199.917969 47.292969 C 201.996094 47.1875 204.074219 47.011719 206.144531 46.765625 C 206.835938 46.683594 207.152344 46.898438 207.441406 47.460938 C 210.996094 54.4375 213.457031 61.804688 215.394531 69.367188 Z M 199.535156 46.757812 C 199.089844 46.824219 198.714844 46.730469 198.691406 46.160156 C 198.667969 45.554688 199.078125 45.515625 199.507812 45.539062 C 201.667969 45.648438 203.828125 45.765625 205.992188 45.878906 C 203.886719 46.660156 201.679688 46.445312 199.535156 46.757812 Z M 205.328125 45.238281 C 203.246094 45.148438 201.164062 45.035156 199.082031 44.929688 C 198.707031 44.910156 198.558594 44.691406 198.535156 44.335938 C 198.328125 41.207031 198.113281 38.078125 197.878906 34.617188 C 201.308594 37.589844 203.679688 40.914062 205.730469 44.5 C 206.054688 45.070312 205.875 45.257812 205.328125 45.238281 Z M 197.347656 46.777344 C 196.691406 46.777344 196.03125 46.777344 195.375 46.777344 C 195.375 46.78125 195.375 46.785156 195.375 46.789062 C 194.867188 46.789062 194.363281 46.804688 193.855469 46.78125 C 193.523438 46.769531 193.085938 46.828125 193.148438 46.265625 C 193.191406 45.914062 193.242188 45.507812 193.714844 45.503906 C 194.980469 45.488281 196.242188 45.5 197.507812 45.523438 C 197.898438 45.527344 197.96875 45.824219 197.988281 46.15625 C 198.019531 46.628906 197.761719 46.777344 197.347656 46.777344 Z M 194.269531 47.4375 C 194.417969 47.460938 194.574219 47.453125 194.726562 47.453125 C 198.160156 47.480469 198.191406 47.480469 198.257812 51.027344 C 198.3125 53.730469 198.496094 65.554688 198.554688 68.761719 C 198.574219 69.851562 198.113281 70.03125 197.175781 69.972656 C 195.703125 69.886719 194.226562 69.859375 192.75 69.902344 C 191.917969 69.925781 191.6875 69.621094 191.730469 68.839844 C 191.898438 65.480469 191.980469 62.117188 192.1875 58.761719 C 192.394531 55.359375 192.75 51.964844 192.957031 48.558594 C 193.015625 47.589844 193.386719 47.296875 194.269531 47.4375 Z M 191.425781 46.769531 C 188.710938 46.589844 186 46.382812 183.285156 46.183594 C 183.300781 46.066406 183.320312 45.949219 183.335938 45.832031 C 186.015625 45.714844 188.695312 45.585938 191.378906 45.496094 C 191.808594 45.480469 192.464844 45.230469 192.484375 46.09375 C 192.503906 46.925781 191.898438 46.800781 191.425781 46.769531 Z M 191.277344 47.34375 C 191.976562 47.34375 192.382812 47.4375 192.320312 48.363281 C 191.847656 55.167969 191.433594 61.980469 191.027344 68.789062 C 190.984375 69.546875 190.871094 70.039062 189.9375 70.019531 C 185.558594 69.941406 181.195312 70.265625 177.558594 70.625 C 174.9375 70.710938 173.105469 70.1875 171.230469 70.03125 C 170.144531 69.9375 170.554688 69.179688 170.507812 68.558594 C 169.964844 61.398438 173.914062 55.800781 176.871094 49.828125 C 178.226562 47.09375 179.816406 45.753906 183.082031 46.636719 C 185.710938 47.347656 188.519531 47.351562 191.277344 47.34375 Z M 171.457031 58.945312 C 171.113281 57.214844 171.691406 55.554688 171.96875 53.898438 C 172.308594 51.867188 172.960938 49.890625 173.40625 47.871094 C 173.585938 47.042969 173.941406 46.65625 174.824219 46.667969 C 175.878906 46.679688 176.910156 46.207031 178.230469 46.507812 C 175.628906 50.601562 173.46875 54.710938 171.457031 58.945312 Z M 174.050781 43.675781 C 173.828125 44.171875 173.390625 44.085938 173.007812 43.933594 C 172.078125 43.558594 171.078125 43.34375 170.195312 42.640625 C 171.976562 41.246094 173.785156 39.988281 176.175781 38.800781 C 175.351562 40.699219 174.710938 42.191406 174.050781 43.675781 Z M 170.203125 43.464844 C 170.933594 43.816406 171.703125 44.082031 172.445312 44.410156 C 172.871094 44.601562 173.574219 44.535156 173.476562 45.285156 C 173.386719 45.976562 172.882812 46.273438 172.21875 46.382812 C 170.214844 46.707031 168.21875 47.070312 166.214844 47.378906 C 165.683594 47.464844 165.191406 47.886719 164.34375 47.480469 C 165.902344 46.128906 167.34375 44.871094 168.792969 43.621094 C 169.214844 43.261719 169.671875 43.207031 170.203125 43.464844 Z M 172.40625 47.015625 C 172.539062 47.003906 172.683594 47.097656 172.875 47.15625 C 171.433594 52.085938 170.664062 57.109375 170.066406 62.1875 C 169.800781 64.457031 168.699219 66.628906 167.980469 68.84375 C 167.816406 69.335938 167.5 69.371094 167.023438 69.273438 C 162.136719 68.273438 157.324219 67.066406 152.796875 64.902344 C 151.96875 64.507812 151.816406 64.203125 152.277344 63.355469 C 155.085938 58.195312 158.5625 53.53125 162.570312 49.253906 C 162.808594 49 163.105469 48.710938 163.421875 48.640625 C 166.390625 47.96875 169.371094 47.335938 172.40625 47.015625 Z M 152.503906 61.457031 C 152.203125 61.984375 151.925781 62.527344 151.601562 63.039062 C 151.394531 63.367188 151.40625 64.023438 150.695312 63.71875 C 150.105469 63.464844 150.015625 63.03125 150.183594 62.476562 C 150.535156 61.3125 150.863281 60.140625 151.238281 58.984375 C 151.503906 58.167969 151.917969 57.390625 152.125 56.558594 C 153.308594 51.742188 156.691406 49.730469 161.527344 49.316406 C 157.960938 53.066406 155.007812 57.097656 152.503906 61.457031 Z M 150.257812 64.25 C 150.558594 64.378906 150.902344 64.5 150.621094 64.996094 C 150.214844 65.707031 150.011719 66.53125 149.394531 67.210938 C 149.039062 66.257812 149.589844 65.484375 149.636719 64.664062 C 149.65625 64.339844 149.882812 64.089844 150.257812 64.25 Z M 148.335938 78.558594 C 148.332031 77.945312 148.261719 77.359375 149.027344 77.066406 C 154.511719 74.953125 160.226562 73.734375 166.023438 72.71875 C 166.730469 72.632812 166.863281 72.960938 166.683594 73.621094 C 165.21875 78.921875 164.386719 84.335938 163.847656 89.796875 C 163.609375 92.222656 163.535156 94.667969 163.449219 97.109375 C 163.417969 97.941406 163.265625 98.320312 162.3125 98.117188 C 158.808594 97.367188 155.328125 96.53125 151.90625 95.441406 C 151.167969 95.207031 150.695312 94.863281 150.5 94.0625 C 149.238281 88.96875 148.378906 83.824219 148.335938 78.558594 Z M 162.511719 98.8125 C 163.703125 99.003906 163.445312 99.949219 163.402344 100.703125 C 163.363281 101.410156 163.816406 102.261719 162.511719 102.578125 C 160.101562 103.15625 157.746094 103.957031 155.386719 104.730469 C 154.816406 104.914062 154.429688 105.007812 154.15625 104.371094 C 152.996094 101.6875 151.914062 98.976562 151.105469 95.957031 C 154.984375 97.125 158.691406 98.207031 162.511719 98.8125 Z M 157.628906 104.578125 C 159.074219 104.125 160.554688 103.765625 162.003906 103.308594 C 163.011719 102.988281 163.46875 103.035156 163.550781 104.34375 C 163.875 109.722656 164.652344 115.035156 166.199219 120.214844 C 166.515625 121.265625 166.859375 122.3125 167.1875 123.359375 C 162.515625 118.9375 158.933594 113.855469 156.054688 108.277344 C 154.636719 105.542969 154.667969 105.507812 157.628906 104.578125 Z M 174.066406 102.351562 C 173.847656 101.511719 173.941406 101.1875 174.925781 100.992188 C 176.988281 100.582031 179 101.0625 180.996094 101.242188 C 183.734375 101.492188 186.480469 101.332031 189.214844 101.679688 C 190.175781 101.800781 190.371094 102.09375 190.359375 102.964844 C 190.320312 106.324219 190.625 119.65625 190.671875 122.964844 C 190.683594 123.828125 190.542969 124.222656 189.546875 124.261719 C 187.621094 124.34375 185.695312 124.570312 183.78125 124.804688 C 182.789062 124.925781 182.238281 124.621094 181.773438 123.691406 C 178.355469 116.878906 175.964844 109.707031 174.066406 102.351562 Z M 189.972656 124.90625 C 190.398438 124.878906 190.664062 124.996094 190.695312 125.460938 C 190.726562 125.976562 190.382812 126.042969 190 126.027344 C 187.777344 125.925781 185.554688 125.820312 183.332031 125.714844 C 185.527344 125.078125 187.753906 125.042969 189.972656 124.90625 Z M 190.035156 126.636719 C 190.566406 126.636719 190.886719 126.875 190.925781 127.445312 C 191.128906 130.433594 191.339844 133.421875 191.539062 136.410156 C 191.542969 136.480469 191.445312 136.558594 191.28125 136.800781 C 187.972656 133.863281 185.492188 130.371094 183.484375 126.636719 C 185.703125 126.636719 187.867188 126.632812 190.035156 126.636719 Z M 192.0625 124.804688 C 193.269531 124.78125 194.480469 124.773438 195.6875 124.765625 C 196.039062 124.765625 196.257812 124.929688 196.242188 125.3125 C 196.222656 125.679688 196.164062 126.042969 195.6875 126.054688 C 195.082031 126.070312 194.480469 126.058594 193.875 126.058594 C 193.875 126.054688 193.875 126.050781 193.875 126.042969 C 193.320312 126.042969 192.765625 126.046875 192.214844 126.042969 C 191.847656 126.039062 191.496094 126.015625 191.480469 125.511719 C 191.46875 125.097656 191.625 124.8125 192.0625 124.804688 Z M 196.679688 127.648438 C 196.734375 126.984375 197.007812 126.773438 197.617188 126.75 C 201.46875 126.597656 205.316406 126.429688 209.582031 126.246094 C 205.71875 131.46875 201.609375 135.804688 196.105469 138.632812 C 195.851562 138.761719 195.554688 139.042969 195.304688 138.753906 C 195.183594 138.617188 195.246094 138.277344 195.289062 138.042969 C 195.960938 134.605469 196.394531 131.132812 196.679688 127.648438 Z M 196.984375 125.457031 C 197.015625 124.78125 197.480469 124.78125 197.953125 124.820312 C 199.925781 124.96875 201.898438 125.128906 203.871094 125.285156 C 204.46875 125.332031 205.070312 125.367188 205.671875 125.40625 C 203.066406 126.117188 200.433594 126.027344 197.804688 126.046875 C 197.40625 126.050781 196.957031 126.09375 196.984375 125.457031 Z M 209.058594 125.300781 C 205.554688 124.640625 202 124.335938 198.441406 124.238281 C 197.125 124.203125 197.0625 123.796875 197.152344 122.644531 C 197.578125 117.167969 197.878906 111.675781 198.21875 106.191406 C 198.253906 105.632812 198.230469 105.070312 198.257812 104.507812 C 198.382812 101.847656 198.394531 101.933594 200.96875 101.703125 C 204.816406 101.359375 208.683594 101.363281 212.53125 100.964844 C 214.402344 100.773438 216.351562 101.363281 218.265625 101.617188 C 218.851562 101.695312 218.914062 102.117188 218.886719 102.640625 C 218.839844 103.503906 218.875 104.371094 218.875 105.234375 C 219.144531 107.605469 218.410156 109.738281 217.476562 111.867188 C 215.558594 116.253906 213.417969 120.511719 210.789062 124.519531 C 210.347656 125.195312 209.933594 125.464844 209.058594 125.300781 Z M 218.019531 112.570312 C 218.335938 114.3125 217.75 115.976562 217.484375 117.644531 C 217.175781 119.582031 216.503906 121.457031 216.128906 123.382812 C 215.917969 124.464844 215.410156 124.945312 214.34375 125.003906 C 213.332031 125.058594 212.328125 125.199219 211.039062 125.332031 C 213.769531 121.121094 215.96875 116.90625 218.019531 112.570312 Z M 216.742188 127.777344 C 217.546875 128.164062 218.882812 128.210938 219.027344 128.960938 C 219.15625 129.609375 217.859375 130.046875 217.160156 130.523438 C 215.972656 131.339844 214.71875 132.058594 213.488281 132.820312 C 213.429688 132.738281 213.375 132.65625 213.316406 132.570312 C 213.933594 131.1875 214.613281 129.824219 215.148438 128.410156 C 215.488281 127.503906 215.953125 127.398438 216.742188 127.777344 Z M 216.960938 127.195312 C 216.5625 127.003906 215.851562 127.089844 215.980469 126.300781 C 216.09375 125.585938 216.535156 125.375 217.234375 125.265625 C 219.832031 124.867188 222.414062 124.375 225.003906 123.917969 C 225.0625 123.992188 225.121094 124.066406 225.179688 124.140625 C 223.601562 125.480469 222.015625 126.816406 220.449219 128.167969 C 220.0625 128.5 219.734375 128.375 219.339844 128.195312 C 218.558594 127.839844 217.738281 127.5625 216.960938 127.195312 Z M 216.539062 124.640625 C 218.023438 119.402344 218.8125 114.28125 219.421875 109.105469 C 219.671875 106.988281 220.765625 104.976562 221.425781 102.898438 C 221.660156 102.164062 222.179688 102.304688 222.648438 102.398438 C 227.484375 103.359375 232.230469 104.613281 236.71875 106.722656 C 237.527344 107.101562 237.585938 107.507812 237.179688 108.253906 C 234.363281 113.402344 230.9375 118.101562 226.886719 122.34375 C 226.609375 122.636719 226.34375 122.902344 225.898438 123.003906 C 222.886719 123.679688 219.871094 124.316406 216.539062 124.640625 Z M 235.097656 113.089844 C 236.035156 111.582031 236.914062 110.042969 237.824219 108.519531 C 238.042969 108.152344 238.152344 107.585938 238.808594 107.921875 C 239.304688 108.175781 239.410156 108.589844 239.277344 109.078125 C 238.273438 112.820312 236.910156 116.417969 235.03125 119.8125 C 234.84375 120.148438 234.574219 120.363281 234.238281 120.488281 C 232.296875 121.207031 230.355469 121.914062 228.226562 122.21875 C 230.675781 119.261719 233.089844 116.328125 235.097656 113.089844 Z M 239.183594 107.378906 C 238.84375 107.230469 238.582031 107.046875 238.828125 106.582031 C 239.222656 105.851562 239.558594 105.089844 240.089844 103.992188 C 240.324219 105.304688 239.894531 106.097656 239.800781 106.933594 C 239.769531 107.199219 239.597656 107.554688 239.183594 107.378906 Z M 238.289062 106.070312 C 238.023438 106.625 237.660156 106.523438 237.179688 106.285156 C 232.679688 104.074219 227.886719 102.796875 222.992188 101.824219 C 222.554688 101.738281 221.878906 101.785156 222.039062 100.972656 C 222.144531 100.4375 222.101562 99.773438 222.835938 99.664062 C 229.042969 98.769531 235.109375 97.300781 241.007812 95.121094 C 241.628906 99.222656 239.953125 102.648438 238.289062 106.070312 Z M 239.167969 95.046875 C 234.28125 96.730469 229.257812 97.835938 224.191406 98.777344 C 222.570312 99.082031 222.546875 99 222.949219 97.398438 C 224.816406 89.976562 225.753906 82.421875 225.996094 74.78125 C 226.03125 73.722656 226.117188 73.3125 227.390625 73.574219 C 230.859375 74.292969 234.277344 75.148438 237.648438 76.222656 C 238.375 76.457031 238.75 76.839844 238.929688 77.53125 C 240.175781 82.320312 240.875 87.191406 241.152344 92.445312 C 241.628906 93.882812 240.660156 94.535156 239.167969 95.046875 Z M 245.347656 79.882812 C 248.371094 80.996094 250.371094 83.679688 250.320312 86.351562 C 250.292969 87.746094 249.507812 88.707031 248.628906 89.636719 C 247.292969 91.042969 245.695312 92.058594 243.785156 92.988281 C 244.664062 88.546875 245.488281 84.289062 245.347656 79.882812 Z M 243.136719 60.4375 C 247.054688 67.210938 249.394531 74.367188 249.921875 82.121094 C 248.589844 80.988281 247.304688 79.925781 245.859375 79.089844 C 245.28125 78.757812 245.332031 78.289062 245.339844 77.785156 C 245.429688 72.460938 244.429688 67.308594 242.882812 62.242188 C 242.652344 61.488281 242.664062 61.484375 243.136719 60.4375 Z M 244.503906 74.492188 C 244.558594 75.40625 244.628906 76.320312 244.675781 77.039062 C 244.917969 78.25 244.539062 78.433594 243.695312 77.929688 C 243.652344 77.902344 243.609375 77.871094 243.558594 77.855469 C 240.222656 76.964844 238.167969 74.972656 237.605469 71.421875 C 237.386719 70.054688 236.664062 68.746094 236.050781 67.46875 C 235.632812 66.605469 235.675781 66.164062 236.640625 65.761719 C 238.328125 65.058594 239.890625 64.097656 241.25 62.859375 C 241.917969 62.246094 242.144531 62.296875 242.417969 63.203125 C 243.519531 66.894531 244.261719 70.644531 244.503906 74.492188 Z M 242.402344 57.949219 C 241.714844 56.953125 241.03125 55.957031 240.34375 54.964844 C 241.609375 55.5625 242.285156 56.566406 242.402344 57.949219 Z M 237.019531 49.515625 C 237.902344 50.621094 238.785156 51.726562 239.664062 52.832031 C 237.941406 52.394531 237.769531 50.726562 236.585938 49.859375 C 236.730469 49.742188 236.875 49.628906 237.019531 49.515625 Z M 238.722656 54.324219 C 239.71875 56.320312 240.675781 58.320312 241.488281 60.402344 C 241.777344 61.148438 241.695312 61.621094 241.136719 62.140625 C 239.628906 63.546875 237.851562 64.511719 236.015625 65.402344 C 235.113281 65.839844 234.992188 65.097656 234.742188 64.589844 C 232.65625 60.332031 230.171875 56.320312 227.253906 52.582031 C 226.164062 51.1875 225.007812 49.847656 223.640625 48.191406 C 228.308594 49.1875 232.488281 50.347656 236.464844 52.1875 C 237.480469 52.660156 238.21875 53.3125 238.722656 54.324219 Z M 235.125 49.828125 C 235.5 50.21875 235.847656 50.632812 236.207031 51.039062 C 232.417969 49.734375 228.667969 48.507812 224.800781 47.820312 C 222.480469 47.40625 221.269531 46.128906 220.429688 44.132812 C 220.152344 43.476562 220.199219 43.117188 220.824219 42.78125 C 221.222656 42.570312 221.71875 42.339844 221.917969 41.980469 C 223.078125 39.859375 224.273438 40.988281 225.539062 41.835938 C 229.019531 44.164062 232.21875 46.816406 235.125 49.828125 Z M 223.398438 38.28125 C 226.027344 39.269531 232.199219 44.597656 233.769531 47.277344 C 233.265625 47.269531 233.058594 46.902344 232.796875 46.671875 C 230.179688 44.335938 227.414062 42.1875 224.402344 40.390625 C 223.527344 39.867188 223.1875 39.25 223.398438 38.28125 Z M 222.675781 39.054688 C 219.449219 37.101562 215.480469 36.550781 212.742188 33.699219 C 216.417969 34.816406 220.453125 35.265625 222.675781 39.054688 Z M 211.933594 34.351562 C 209.421875 33.777344 206.972656 33.0625 204.5 32.449219 C 207.078125 32.710938 209.816406 32.316406 211.933594 34.351562 Z M 213.734375 35.957031 C 215.726562 36.863281 216.742188 39.074219 217.921875 40.910156 C 218.339844 41.558594 219.324219 42.535156 218.847656 42.933594 C 218.042969 43.601562 217.402344 42.386719 216.78125 41.902344 C 212.046875 38.210938 206.929688 35.242188 201.230469 33.308594 C 200.855469 33.179688 200.496094 33.019531 200.128906 32.875 C 204.859375 33.171875 209.46875 34.023438 213.734375 35.957031 Z M 217.800781 43.578125 C 214.320312 44.652344 211.21875 46 207.710938 45.339844 C 207.128906 45.226562 206.792969 44.953125 206.542969 44.503906 C 204.21875 40.351562 201.484375 36.535156 197.753906 33.503906 C 197.667969 33.433594 197.683594 33.230469 197.609375 32.890625 C 205.175781 34.828125 211.664062 38.492188 217.800781 43.578125 Z M 195.273438 32.773438 C 196.066406 32.902344 196.988281 33.414062 197.085938 34.542969 C 197.273438 36.660156 197.496094 38.773438 197.695312 40.890625 C 197.75 41.445312 197.746094 42.007812 197.804688 42.558594 C 198.070312 44.953125 198.074219 44.953125 195.75 44.917969 C 193.230469 44.878906 193.230469 44.878906 193.558594 42.375 C 193.910156 39.667969 194.222656 36.949219 194.664062 34.253906 C 194.746094 33.75 194.601562 32.667969 195.273438 32.773438 Z M 192.777344 43.945312 C 192.71875 44.886719 192.144531 44.957031 191.421875 44.941406 C 187.65625 44.855469 183.90625 45.195312 179.832031 45.46875 C 183.71875 40 188.136719 35.5 194.332031 32.46875 C 193.589844 36.5 193.015625 40.203125 192.777344 43.945312 Z M 191.605469 33.003906 C 190.03125 34.199219 188.550781 35.242188 187.152344 36.390625 C 184.378906 38.664062 181.988281 41.320312 179.933594 44.253906 C 179.207031 45.289062 178.46875 45.417969 177.367188 45.136719 C 174.441406 44.390625 174.503906 44.449219 175.628906 41.644531 C 176.726562 38.910156 178.480469 37.066406 181.335938 36.042969 C 184.472656 34.914062 187.601562 33.804688 190.824219 32.96875 C 191.007812 32.917969 191.222656 32.984375 191.605469 33.003906 Z M 182.757812 33.21875 C 184.511719 33.046875 186.226562 32.527344 188.015625 32.746094 C 185.34375 33.84375 182.546875 34.5 180.074219 35.976562 C 179.898438 36.078125 179.515625 36.058594 179.375 35.933594 C 179.148438 35.726562 179.394531 35.472656 179.550781 35.292969 C 180.421875 34.300781 181.289062 33.363281 182.757812 33.21875 Z M 179.847656 33.074219 C 175.929688 34.191406 172.105469 35.578125 168.355469 37.148438 C 171.773438 34.570312 175.734375 33.59375 179.847656 33.074219 Z M 168.042969 38.226562 C 171.597656 36.5 175.246094 35.054688 179.179688 34.234375 C 178.261719 35.78125 177.417969 37.269531 175.699219 38.113281 C 173.753906 39.070312 171.957031 40.324219 170.214844 41.632812 C 169.230469 42.375 168.132812 41.921875 167.214844 40.457031 C 166.511719 39.335938 166.976562 38.742188 168.042969 38.226562 Z M 166.0625 39.394531 C 166.40625 40.546875 167.050781 41.5 168.035156 42.1875 C 168.515625 42.523438 168.625 42.75 168.105469 43.199219 C 166.300781 44.753906 164.546875 46.371094 162.746094 47.933594 C 162.03125 48.554688 161.046875 48.523438 160.1875 48.808594 C 158.671875 49.3125 157.132812 49.746094 155.238281 50.316406 C 158.183594 45.6875 161.089844 41.585938 166.0625 39.394531 Z M 157.6875 45.324219 C 155.621094 47.789062 154.914062 51.585938 150.652344 52.257812 C 152.851562 49.53125 155.097656 47.253906 157.6875 45.324219 Z M 148.851562 54.710938 C 150.105469 53.53125 151.59375 52.664062 153.578125 51.925781 C 151.847656 55.359375 150.574219 58.558594 149.683594 61.894531 C 149.429688 62.847656 149.101562 62.609375 148.570312 62.160156 C 146.046875 60.027344 146.105469 57.292969 148.851562 54.710938 Z M 145.910156 59.144531 C 146.589844 60.964844 147.59375 62.246094 148.914062 63.285156 C 149.359375 63.636719 149.09375 64.160156 149.019531 64.582031 C 148.308594 68.664062 147.617188 72.746094 146.191406 76.660156 C 145.992188 77.214844 145.804688 77.71875 145.164062 78.042969 C 143 79.144531 140.949219 80.4375 139.148438 82.730469 C 139.644531 74.179688 141.753906 66.558594 145.910156 59.144531 Z M 139.222656 84.855469 C 139.835938 81.480469 142.851562 80.285156 145.578125 78.566406 C 145.167969 80.992188 144.738281 83.105469 144.472656 85.242188 C 144.214844 87.34375 144.125 89.464844 143.9375 91.882812 C 141.175781 90.101562 138.578125 88.402344 139.222656 84.855469 Z M 146.410156 110.738281 C 145.914062 110.964844 145.859375 110.398438 145.714844 110.136719 C 142.152344 103.644531 139.945312 96.738281 139.300781 88.910156 C 140.644531 90.476562 141.882812 91.511719 143.292969 92.324219 C 143.863281 92.65625 144 93.148438 144.007812 93.730469 C 144.105469 99.171875 144.984375 104.480469 146.613281 109.671875 C 146.738281 110.070312 146.875 110.527344 146.410156 110.738281 Z M 147.066406 108.476562 C 145.976562 104.839844 145.167969 101.15625 145.003906 97.359375 C 144.949219 96.042969 144.449219 94.757812 144.773438 93.328125 C 146.46875 94.039062 148.042969 94.714844 149.628906 95.351562 C 150.160156 95.566406 150.414062 95.945312 150.5625 96.457031 C 151.34375 99.140625 152.304688 101.757812 153.453125 104.300781 C 153.8125 105.09375 153.683594 105.464844 152.90625 105.800781 C 151.175781 106.546875 149.550781 107.492188 148.140625 108.765625 C 147.609375 109.246094 147.347656 109.414062 147.066406 108.476562 Z M 151.011719 117.769531 C 149.765625 115.632812 148.835938 113.347656 147.914062 111.054688 C 147.660156 110.425781 147.785156 109.996094 148.230469 109.558594 C 149.738281 108.074219 151.570312 107.097656 153.460938 106.207031 C 154.402344 105.765625 154.476562 106.59375 154.714844 107.070312 C 156.957031 111.59375 159.617188 115.847656 162.78125 119.785156 C 163.664062 120.886719 164.582031 121.957031 165.789062 123.40625 C 160.765625 122.34375 156.296875 121.101562 152.101562 118.988281 C 151.554688 118.707031 151.289062 118.242188 151.011719 117.769531 Z M 153.394531 120.546875 C 156.425781 121.554688 159.417969 122.613281 162.519531 123.316406 C 163.207031 123.476562 163.890625 123.730469 164.589844 123.789062 C 167.003906 123.984375 168.230469 125.5 169.046875 127.574219 C 169.253906 128.09375 169.304688 128.570312 168.777344 128.695312 C 167.417969 129.015625 166.984375 131.523438 165.515625 130.695312 C 160.886719 128.101562 156.882812 124.648438 153.394531 120.546875 Z M 166.015625 133.480469 C 161.808594 130.992188 158.359375 127.8125 155.25 124.050781 C 155.792969 123.945312 155.96875 124.3125 156.1875 124.515625 C 158.917969 127.027344 161.839844 129.296875 165.019531 131.210938 C 165.878906 131.730469 166.195312 132.371094 166.015625 133.480469 Z M 166.679688 132.109375 C 169.964844 134.542969 173.910156 135.027344 176.792969 137.734375 C 173.726562 138.0625 167.324219 134.6875 166.679688 132.109375 Z M 177.058594 137.035156 C 179.757812 137.742188 182.121094 138.359375 184.488281 138.976562 C 181.992188 138.871094 179.378906 139.222656 177.058594 137.035156 Z M 177.976562 136.585938 C 173.972656 135.527344 172.546875 132.113281 170.582031 129.148438 C 170.464844 128.972656 170.386719 128.769531 170.539062 128.589844 C 170.738281 128.363281 170.988281 128.394531 171.226562 128.535156 C 171.359375 128.613281 171.480469 128.707031 171.597656 128.804688 C 176.785156 133.160156 182.574219 136.457031 188.972656 138.765625 C 185.195312 138.554688 181.601562 137.546875 177.976562 136.585938 Z M 187.386719 137.339844 C 181.984375 135.371094 177.125 132.460938 172.644531 128.871094 C 171.753906 128.160156 171.898438 127.839844 172.875 127.574219 C 175.703125 126.796875 178.476562 125.71875 181.511719 126.238281 C 181.972656 126.316406 182.414062 126.296875 182.675781 126.777344 C 185.035156 131.09375 187.996094 134.941406 191.6875 138.207031 C 191.742188 138.257812 191.722656 138.394531 191.75 138.582031 C 190.1875 138.46875 188.796875 137.855469 187.386719 137.339844 Z M 194.125 138.789062 C 193.425781 138.710938 192.578125 138.277344 192.441406 137.480469 C 191.875 134.171875 191.75 130.816406 191.496094 127.472656 C 191.449219 126.847656 191.808594 126.695312 192.351562 126.71875 C 192.859375 126.742188 193.367188 126.726562 193.875 126.726562 C 196.09375 126.847656 196.09375 126.851562 195.886719 129.164062 C 195.636719 131.996094 195.300781 134.816406 194.699219 137.597656 C 194.605469 138.035156 194.832031 138.875 194.125 138.789062 Z M 195.246094 141.601562 C 194.972656 141.605469 194.460938 141.832031 194.503906 141.199219 C 194.542969 140.675781 194.855469 140.511719 195.339844 140.601562 C 195.875 140.703125 196.394531 140.847656 196.984375 141.308594 C 196.335938 141.714844 195.773438 141.59375 195.246094 141.601562 Z M 209.976562 126.777344 C 210.429688 126.148438 210.917969 125.914062 211.613281 126.386719 C 211.734375 126.46875 211.902344 126.484375 212.050781 126.519531 C 214.988281 127.214844 214.929688 127.191406 213.804688 129.925781 C 212.742188 132.519531 211.183594 134.441406 208.410156 135.445312 C 205.050781 136.664062 201.753906 138.023438 198.164062 138.457031 C 202.910156 135.308594 206.703125 131.304688 209.976562 126.777344 Z M 200.5625 139.101562 C 203.824219 137.992188 207.066406 136.839844 210.25 135.519531 C 208.011719 139.539062 203.96875 138.40625 200.5625 139.101562 Z M 210 138.441406 C 213.660156 137.324219 217.261719 136.042969 220.8125 134.609375 C 217.605469 137.019531 213.882812 137.964844 210 138.441406 Z M 221.511719 133.328125 C 217.820312 135.132812 214.03125 136.625 209.894531 137.625 C 211.246094 135.34375 212.902344 133.753906 215.113281 132.652344 C 216.59375 131.910156 217.902344 130.832031 219.289062 129.898438 C 220.234375 129.257812 221.414062 129.78125 222.238281 131.183594 C 222.835938 132.203125 222.574219 132.808594 221.511719 133.328125 Z M 226.707031 130.273438 C 226.242188 130.585938 225.746094 130.851562 225.304688 131.1875 C 224.175781 132.042969 223.253906 132.433594 222.535156 130.65625 C 222.257812 129.972656 221.433594 129.507812 220.902344 128.980469 C 224.421875 125.0625 228.441406 122.074219 233.777344 121.605469 C 233.15625 123.597656 229.039062 128.703125 226.707031 130.273438 Z M 231.660156 126.292969 C 233.800781 123.835938 234.546875 120.015625 238.449219 119.382812 C 237.953125 120.703125 234.050781 124.820312 231.660156 126.292969 Z M 241.957031 115.085938 C 240.621094 117.371094 238.488281 118.511719 236.15625 119.464844 C 237.617188 116.195312 238.894531 112.941406 239.796875 109.550781 C 239.964844 108.925781 240.175781 108.976562 240.621094 109.257812 C 242.691406 110.574219 243.1875 112.984375 241.957031 115.085938 Z M 240.808594 108.585938 C 240.34375 108.21875 240.285156 107.867188 240.375 107.289062 C 241.042969 103.042969 241.894531 98.847656 243.285156 94.769531 C 243.441406 94.308594 243.605469 93.875 244.140625 93.621094 C 246.394531 92.546875 248.425781 91.148438 250.34375 88.863281 C 249.738281 97.476562 247.664062 105.152344 243.464844 112.582031 C 242.933594 110.722656 242.011719 109.542969 240.808594 108.585938 Z M 240.808594 108.585938 "/></g><g clip-rule="nonzero" clip-path="url(#c907a1aefb)"><path style=" stroke:none;fill-rule:nonzero;fill:#222222;fill-opacity:1;" d="M 86.0625 40.546875 C 89.984375 39.464844 90.863281 38.585938 91.949219 34.660156 C 93.03125 38.585938 93.910156 39.464844 97.832031 40.546875 C 93.910156 41.632812 93.03125 42.511719 91.949219 46.433594 C 90.863281 42.511719 89.984375 41.632812 86.0625 40.546875 Z M 72.941406 71.5625 C 75.65625 61.726562 77.859375 59.527344 87.691406 56.808594 C 77.859375 54.09375 75.65625 51.894531 72.941406 42.058594 C 70.222656 51.894531 68.023438 54.09375 58.191406 56.808594 C 68.023438 59.527344 70.222656 61.726562 72.941406 71.5625 Z M 72.941406 71.5625 "/></g><g style="fill:#222222;fill-opacity:1;"><g transform="translate(131.187905, 106.74274)"><path style="stroke:none" d="M 2.570312 4.601562 C 1.789062 4.632812 1.035156 4.515625 0.304688 4.242188 C -0.371094 3.996094 -0.988281 3.628906 -1.546875 3.144531 C -2.144531 2.628906 -2.617188 2.03125 -2.960938 1.347656 C -3.339844 0.605469 -3.542969 -0.1875 -3.578125 -1.023438 L -5 -36.035156 C -5.03125 -36.832031 -4.914062 -37.597656 -4.644531 -38.328125 C -4.355469 -39.105469 -3.917969 -39.789062 -3.332031 -40.386719 C -2.804688 -40.917969 -2.207031 -41.332031 -1.539062 -41.632812 C -0.855469 -41.9375 -0.132812 -42.109375 0.625 -42.140625 L 12.25 -42.609375 C 12.996094 -42.640625 13.710938 -42.542969 14.402344 -42.3125 C 15.132812 -42.066406 15.796875 -41.691406 16.382812 -41.1875 C 17.019531 -40.640625 17.511719 -39.992188 17.859375 -39.242188 C 18.1875 -38.535156 18.367188 -37.785156 18.402344 -36.984375 L 18.816406 -26.714844 C 18.796875 -27.203125 18.679688 -27.667969 18.46875 -28.117188 C 18.273438 -28.527344 18.011719 -28.882812 17.691406 -29.179688 C 17.367188 -29.476562 16.992188 -29.707031 16.566406 -29.867188 C 16.105469 -30.042969 15.628906 -30.121094 15.144531 -30.101562 C 14.6875 -30.085938 14.246094 -29.976562 13.8125 -29.773438 C 13.339844 -29.554688 12.933594 -29.246094 12.59375 -28.855469 C 12.316406 -28.53125 12.105469 -28.160156 11.957031 -27.746094 C 11.804688 -27.316406 11.738281 -26.875 11.753906 -26.429688 L 11.339844 -36.699219 C 11.304688 -37.496094 11.425781 -38.261719 11.695312 -38.992188 C 11.980469 -39.769531 12.417969 -40.453125 13.007812 -41.046875 C 13.53125 -41.578125 14.128906 -41.996094 14.800781 -42.296875 C 15.484375 -42.601562 16.207031 -42.769531 16.964844 -42.800781 L 28.589844 -43.273438 C 29.332031 -43.304688 30.050781 -43.203125 30.742188 -42.976562 C 31.472656 -42.730469 32.132812 -42.355469 32.722656 -41.847656 C 33.355469 -41.304688 33.847656 -40.65625 34.199219 -39.90625 C 34.527344 -39.199219 34.707031 -38.445312 34.738281 -37.648438 L 36.160156 -2.636719 C 36.191406 -1.878906 36.082031 -1.144531 35.832031 -0.4375 C 35.585938 0.253906 35.222656 0.882812 34.734375 1.449219 C 34.1875 2.082031 33.539062 2.574219 32.789062 2.925781 C 32.082031 3.253906 31.332031 3.433594 30.535156 3.464844 L 18.910156 3.9375 C 18.128906 3.96875 17.371094 3.851562 16.640625 3.582031 C 15.964844 3.332031 15.351562 2.964844 14.789062 2.480469 C 14.195312 1.964844 13.722656 1.367188 13.375 0.683594 C 13 -0.0585938 12.792969 -0.847656 12.761719 -1.6875 L 12.34375 -11.910156 C 12.363281 -11.507812 12.453125 -11.117188 12.617188 -10.730469 C 12.796875 -10.304688 13.050781 -9.929688 13.378906 -9.605469 C 13.746094 -9.242188 14.175781 -8.972656 14.667969 -8.789062 C 15.113281 -8.625 15.5625 -8.550781 16.019531 -8.570312 C 16.464844 -8.585938 16.898438 -8.691406 17.316406 -8.878906 C 17.714844 -9.058594 18.066406 -9.300781 18.367188 -9.601562 C 18.730469 -9.972656 19.003906 -10.402344 19.1875 -10.894531 C 19.351562 -11.339844 19.425781 -11.789062 19.40625 -12.242188 L 19.824219 -1.972656 C 19.851562 -1.214844 19.742188 -0.480469 19.492188 0.226562 C 19.25 0.917969 18.882812 1.546875 18.394531 2.113281 C 17.851562 2.746094 17.203125 3.238281 16.449219 3.589844 C 15.746094 3.917969 14.992188 4.097656 14.195312 4.128906 Z M 2.191406 -4.792969 L 13.8125 -5.265625 C 13.359375 -5.25 12.914062 -5.140625 12.484375 -4.9375 C 12.007812 -4.71875 11.601562 -4.410156 11.265625 -4.019531 C 10.988281 -3.695312 10.773438 -3.324219 10.628906 -2.910156 C 10.476562 -2.480469 10.40625 -2.039062 10.425781 -1.59375 L 10.007812 -11.863281 C 9.976562 -12.660156 10.09375 -13.425781 10.367188 -14.15625 C 10.652344 -14.929688 11.089844 -15.617188 11.679688 -16.210938 C 12.203125 -16.742188 12.800781 -17.160156 13.46875 -17.460938 C 14.15625 -17.765625 14.878906 -17.933594 15.636719 -17.964844 C 16.433594 -18 17.199219 -17.878906 17.929688 -17.609375 C 18.703125 -17.320312 19.390625 -16.882812 19.984375 -16.296875 C 20.539062 -15.75 20.964844 -15.121094 21.269531 -14.410156 C 21.554688 -13.742188 21.710938 -13.035156 21.742188 -12.292969 L 22.15625 -2.070312 C 22.136719 -2.59375 22.003906 -3.097656 21.761719 -3.570312 C 21.550781 -3.988281 21.277344 -4.34375 20.9375 -4.632812 C 20.640625 -4.894531 20.292969 -5.09375 19.902344 -5.238281 C 19.457031 -5.40625 19 -5.476562 18.527344 -5.457031 L 30.152344 -5.929688 C 29.699219 -5.910156 29.253906 -5.800781 28.824219 -5.601562 C 28.347656 -5.378906 27.941406 -5.074219 27.605469 -4.683594 C 27.324219 -4.359375 27.113281 -3.988281 26.964844 -3.574219 C 26.8125 -3.144531 26.746094 -2.703125 26.765625 -2.257812 L 25.34375 -37.265625 C 25.363281 -36.8125 25.472656 -36.371094 25.671875 -35.9375 C 25.894531 -35.460938 26.199219 -35.054688 26.589844 -34.71875 C 26.9375 -34.421875 27.332031 -34.199219 27.773438 -34.050781 C 28.167969 -33.917969 28.570312 -33.863281 28.972656 -33.878906 L 17.347656 -33.40625 C 17.792969 -33.425781 18.226562 -33.527344 18.644531 -33.714844 C 19.046875 -33.894531 19.398438 -34.136719 19.699219 -34.441406 C 20.0625 -34.808594 20.332031 -35.238281 20.515625 -35.730469 C 20.679688 -36.175781 20.753906 -36.625 20.734375 -37.082031 L 21.152344 -26.808594 C 21.183594 -26.050781 21.074219 -25.320312 20.824219 -24.609375 C 20.578125 -23.917969 20.210938 -23.289062 19.726562 -22.722656 C 19.179688 -22.089844 18.53125 -21.597656 17.78125 -21.25 C 17.074219 -20.917969 16.324219 -20.738281 15.523438 -20.707031 C 14.726562 -20.675781 13.957031 -20.800781 13.21875 -21.082031 C 12.515625 -21.347656 11.882812 -21.742188 11.316406 -22.265625 C 10.75 -22.785156 10.304688 -23.386719 9.980469 -24.066406 C 9.640625 -24.777344 9.453125 -25.535156 9.421875 -26.332031 L 9.003906 -36.605469 C 9.023438 -36.148438 9.132812 -35.707031 9.332031 -35.273438 C 9.554688 -34.800781 9.859375 -34.394531 10.253906 -34.054688 C 10.597656 -33.757812 10.992188 -33.535156 11.433594 -33.386719 C 11.832031 -33.257812 12.230469 -33.199219 12.632812 -33.214844 L 1.007812 -32.742188 C 1.457031 -32.761719 1.886719 -32.863281 2.304688 -33.050781 C 2.707031 -33.230469 3.058594 -33.472656 3.359375 -33.777344 C 3.722656 -34.144531 3.996094 -34.574219 4.175781 -35.066406 C 4.339844 -35.511719 4.414062 -35.960938 4.394531 -36.417969 L 5.816406 -1.40625 C 5.796875 -1.929688 5.664062 -2.433594 5.425781 -2.90625 C 5.214844 -3.324219 4.9375 -3.679688 4.601562 -3.96875 C 4.300781 -4.230469 3.953125 -4.433594 3.566406 -4.578125 C 3.117188 -4.742188 2.660156 -4.8125 2.191406 -4.792969 Z M 2.191406 -4.792969 "/></g></g><g style="fill:#222222;fill-opacity:1;"><g transform="translate(163.494414, 105.511878)"><path style="stroke:none" d="M 2.476562 4.652344 C 1.691406 4.667969 0.9375 4.535156 0.214844 4.25 C -0.453125 3.984375 -1.0625 3.605469 -1.613281 3.113281 C -2.199219 2.585938 -2.65625 1.976562 -2.988281 1.285156 C -3.351562 0.535156 -3.539062 -0.257812 -3.554688 -1.097656 L -4.25 -36.132812 C -4.265625 -36.929688 -4.132812 -37.691406 -3.847656 -38.414062 C -3.542969 -39.1875 -3.089844 -39.863281 -2.492188 -40.445312 C -1.957031 -40.964844 -1.347656 -41.371094 -0.671875 -41.65625 C 0.0195312 -41.949219 0.742188 -42.101562 1.503906 -42.117188 L 13.132812 -42.347656 C 13.878906 -42.363281 14.59375 -42.246094 15.277344 -42.003906 C 16.003906 -41.746094 16.65625 -41.355469 17.238281 -40.835938 C 17.859375 -40.277344 18.335938 -39.621094 18.671875 -38.863281 C 18.984375 -38.148438 19.148438 -37.394531 19.164062 -36.59375 L 19.859375 -1.5625 C 19.875 -0.800781 19.75 -0.0703125 19.484375 0.628906 C 19.226562 1.316406 18.847656 1.9375 18.347656 2.496094 C 17.789062 3.117188 17.132812 3.597656 16.371094 3.929688 C 15.660156 4.242188 14.90625 4.40625 14.105469 4.421875 Z M 2.289062 -4.75 L 13.921875 -4.980469 C 13.464844 -4.96875 13.019531 -4.871094 12.585938 -4.679688 C 12.105469 -4.464844 11.691406 -4.167969 11.347656 -3.785156 C 11.0625 -3.464844 10.839844 -3.101562 10.6875 -2.6875 C 10.523438 -2.261719 10.449219 -1.824219 10.457031 -1.375 L 9.761719 -36.410156 C 9.773438 -35.953125 9.871094 -35.507812 10.0625 -35.074219 C 10.273438 -34.59375 10.574219 -34.179688 10.957031 -33.835938 C 11.300781 -33.53125 11.6875 -33.300781 12.125 -33.144531 C 12.519531 -33.003906 12.917969 -32.9375 13.320312 -32.945312 L 1.6875 -32.714844 C 2.136719 -32.722656 2.570312 -32.816406 2.992188 -32.996094 C 3.398438 -33.167969 3.753906 -33.402344 4.058594 -33.699219 C 4.429688 -34.058594 4.710938 -34.484375 4.90625 -34.972656 C 5.078125 -35.414062 5.160156 -35.863281 5.152344 -36.316406 L 5.847656 -1.285156 C 5.835938 -1.8125 5.714844 -2.3125 5.484375 -2.792969 C 5.28125 -3.214844 5.011719 -3.574219 4.683594 -3.875 C 4.386719 -4.140625 4.046875 -4.347656 3.660156 -4.5 C 3.21875 -4.675781 2.761719 -4.757812 2.289062 -4.75 Z M 2.289062 -4.75 "/></g></g><g style="fill:#222222;fill-opacity:1;"><g transform="translate(179.417649, 105.052673)"><path style="stroke:none" d="M 2.363281 4.710938 C 1.582031 4.707031 0.832031 4.554688 0.113281 4.253906 C -0.550781 3.972656 -1.148438 3.582031 -1.6875 3.074219 C -2.257812 2.53125 -2.703125 1.910156 -3.019531 1.214844 C -3.363281 0.453125 -3.53125 -0.34375 -3.53125 -1.183594 L -3.390625 -36.222656 C -3.386719 -37.019531 -3.234375 -37.777344 -2.933594 -38.496094 C -2.609375 -39.257812 -2.144531 -39.925781 -1.53125 -40.492188 C -0.980469 -41 -0.367188 -41.390625 0.316406 -41.660156 C 1.015625 -41.9375 1.742188 -42.070312 2.503906 -42.070312 L 29.179688 -41.964844 C 31.855469 -41.953125 34.269531 -41.320312 36.425781 -40.070312 C 38.582031 -38.8125 40.28125 -37.101562 41.519531 -34.933594 C 42.753906 -32.769531 43.367188 -30.351562 43.355469 -27.675781 L 43.335938 -22.441406 C 43.324219 -19.765625 42.695312 -17.351562 41.441406 -15.195312 C 40.1875 -13.039062 38.476562 -11.339844 36.308594 -10.101562 C 34.144531 -8.867188 31.722656 -8.253906 29.046875 -8.265625 L 16.433594 -8.316406 C 17.296875 -8.3125 18.050781 -8.585938 18.691406 -9.140625 C 19.085938 -9.488281 19.394531 -9.902344 19.617188 -10.394531 C 19.824219 -10.859375 19.929688 -11.339844 19.933594 -11.835938 L 19.890625 -1.089844 C 19.886719 -0.328125 19.746094 0.398438 19.464844 1.09375 C 19.1875 1.773438 18.796875 2.386719 18.28125 2.929688 C 17.710938 3.539062 17.039062 4 16.273438 4.316406 C 15.554688 4.613281 14.796875 4.761719 13.996094 4.757812 Z M 2.402344 -4.691406 L 14.035156 -4.648438 C 13.578125 -4.648438 13.132812 -4.558594 12.691406 -4.378906 C 12.207031 -4.179688 11.789062 -3.890625 11.433594 -3.511719 C 11.140625 -3.203125 10.910156 -2.84375 10.746094 -2.433594 C 10.574219 -2.011719 10.488281 -1.574219 10.488281 -1.125 L 10.527344 -11.871094 C 10.53125 -12.707031 10.703125 -13.5 11.039062 -14.246094 C 11.382812 -15.015625 11.878906 -15.683594 12.527344 -16.242188 C 13.664062 -17.234375 14.980469 -17.726562 16.46875 -17.71875 L 29.082031 -17.667969 C 30.082031 -17.664062 30.9375 -17.863281 31.644531 -18.269531 C 32.347656 -18.671875 32.902344 -19.222656 33.3125 -19.921875 C 33.722656 -20.628906 33.929688 -21.480469 33.933594 -22.480469 L 33.953125 -27.710938 C 33.957031 -28.710938 33.757812 -29.5625 33.351562 -30.273438 C 32.949219 -30.976562 32.398438 -31.53125 31.699219 -31.9375 C 30.992188 -32.347656 30.140625 -32.554688 29.144531 -32.558594 L 2.464844 -32.664062 C 2.914062 -32.664062 3.351562 -32.746094 3.773438 -32.914062 C 4.183594 -33.078125 4.546875 -33.300781 4.859375 -33.59375 C 5.238281 -33.945312 5.53125 -34.363281 5.734375 -34.84375 C 5.917969 -35.28125 6.011719 -35.730469 6.011719 -36.183594 L 5.875 -1.144531 C 5.875 -1.671875 5.769531 -2.175781 5.546875 -2.664062 C 5.355469 -3.089844 5.097656 -3.457031 4.773438 -3.761719 C 4.484375 -4.035156 4.148438 -4.25 3.765625 -4.414062 C 3.328125 -4.597656 2.871094 -4.691406 2.402344 -4.691406 Z M 16.46875 -28.933594 L 23.476562 -28.902344 C 23.019531 -28.90625 22.570312 -28.816406 22.132812 -28.636719 C 21.648438 -28.433594 21.226562 -28.148438 20.875 -27.769531 C 20.582031 -27.460938 20.351562 -27.101562 20.1875 -26.691406 C 20.015625 -26.269531 19.929688 -25.832031 19.925781 -25.382812 C 19.925781 -24.96875 20.003906 -24.554688 20.160156 -24.144531 C 20.34375 -23.671875 20.613281 -23.253906 20.96875 -22.894531 C 21.324219 -22.539062 21.738281 -22.265625 22.210938 -22.078125 C 22.617188 -21.917969 23.03125 -21.835938 23.445312 -21.835938 L 16.4375 -21.863281 C 16.886719 -21.863281 17.324219 -21.945312 17.75 -22.113281 C 18.15625 -22.273438 18.519531 -22.5 18.832031 -22.792969 C 19.210938 -23.144531 19.503906 -23.558594 19.707031 -24.042969 C 19.890625 -24.480469 19.984375 -24.929688 19.988281 -25.382812 C 19.988281 -25.871094 19.894531 -26.34375 19.699219 -26.800781 C 19.523438 -27.21875 19.277344 -27.582031 18.96875 -27.894531 C 18.660156 -28.207031 18.296875 -28.453125 17.878906 -28.632812 C 17.425781 -28.832031 16.953125 -28.929688 16.46875 -28.933594 Z M 16.429688 -19.527344 C 15.628906 -19.53125 14.867188 -19.691406 14.140625 -20.003906 C 13.453125 -20.304688 12.835938 -20.726562 12.292969 -21.273438 C 11.753906 -21.816406 11.335938 -22.4375 11.042969 -23.128906 C 10.734375 -23.859375 10.578125 -24.621094 10.582031 -25.421875 C 10.585938 -26.21875 10.738281 -26.976562 11.042969 -27.695312 C 11.363281 -28.457031 11.832031 -29.125 12.445312 -29.691406 C 12.992188 -30.199219 13.609375 -30.589844 14.289062 -30.859375 C 14.988281 -31.132812 15.714844 -31.269531 16.476562 -31.269531 L 23.484375 -31.238281 C 24.242188 -31.238281 24.96875 -31.101562 25.652344 -30.828125 C 26.40625 -30.535156 27.070312 -30.097656 27.644531 -29.519531 C 28.214844 -28.941406 28.648438 -28.277344 28.9375 -27.519531 C 29.203125 -26.832031 29.335938 -26.105469 29.332031 -25.347656 C 29.328125 -24.585938 29.1875 -23.859375 28.90625 -23.164062 C 28.628906 -22.484375 28.234375 -21.871094 27.722656 -21.328125 C 27.152344 -20.71875 26.480469 -20.257812 25.714844 -19.941406 C 24.996094 -19.644531 24.234375 -19.496094 23.4375 -19.5 Z M 16.429688 -19.527344 "/></g></g><g style="fill:#222222;fill-opacity:1;"><g transform="translate(218.528596, 105.197385)"><path style="stroke:none" d="M 2.15625 4.785156 C 1.359375 4.757812 0.601562 4.570312 -0.113281 4.234375 C -0.792969 3.910156 -1.394531 3.46875 -1.917969 2.90625 C -2.441406 2.339844 -2.835938 1.707031 -3.105469 1.007812 C -3.390625 0.265625 -3.519531 -0.5 -3.488281 -1.300781 L -3.171875 -9.703125 C -3.140625 -10.5 -2.964844 -11.253906 -2.636719 -11.960938 C -2.289062 -12.714844 -1.800781 -13.363281 -1.167969 -13.910156 C -0.601562 -14.398438 0.0273438 -14.765625 0.71875 -15.011719 C 1.421875 -15.265625 2.15625 -15.378906 2.914062 -15.347656 L 23.925781 -14.558594 C 23.46875 -14.574219 23.019531 -14.5 22.574219 -14.335938 C 22.082031 -14.152344 21.652344 -13.878906 21.289062 -13.511719 C 20.984375 -13.210938 20.742188 -12.859375 20.5625 -12.457031 C 20.378906 -12.039062 20.277344 -11.605469 20.261719 -11.160156 C 20.246094 -10.742188 20.308594 -10.328125 20.453125 -9.914062 C 20.617188 -9.433594 20.871094 -9.007812 21.214844 -8.636719 C 21.558594 -8.269531 21.964844 -7.980469 22.433594 -7.78125 C 22.832031 -7.605469 23.242188 -7.511719 23.660156 -7.496094 L 11.007812 -7.972656 C 8.332031 -8.070312 5.941406 -8.785156 3.828125 -10.109375 C 1.714844 -11.433594 0.0742188 -13.203125 -1.089844 -15.410156 C -2.25 -17.617188 -2.78125 -20.054688 -2.679688 -22.730469 L -2.484375 -27.957031 C -2.382812 -30.632812 -1.671875 -33.027344 -0.347656 -35.136719 C 0.980469 -37.25 2.746094 -38.890625 4.957031 -40.054688 C 7.160156 -41.214844 9.601562 -41.746094 12.273438 -41.644531 L 38.933594 -40.644531 C 39.691406 -40.613281 40.410156 -40.453125 41.085938 -40.160156 C 41.832031 -39.839844 42.476562 -39.378906 43.03125 -38.785156 C 43.585938 -38.1875 43.992188 -37.507812 44.257812 -36.742188 C 44.5 -36.042969 44.605469 -35.316406 44.578125 -34.554688 L 44.261719 -26.152344 C 44.234375 -25.394531 44.066406 -24.671875 43.761719 -23.984375 C 43.464844 -23.316406 43.050781 -22.714844 42.519531 -22.191406 C 41.925781 -21.601562 41.242188 -21.160156 40.464844 -20.871094 C 39.734375 -20.597656 38.972656 -20.476562 38.175781 -20.507812 L 17.164062 -21.296875 C 17.613281 -21.28125 18.050781 -21.351562 18.480469 -21.503906 C 18.898438 -21.652344 19.265625 -21.867188 19.589844 -22.144531 C 19.980469 -22.484375 20.285156 -22.890625 20.503906 -23.367188 C 20.703125 -23.796875 20.8125 -24.242188 20.828125 -24.695312 C 20.847656 -25.183594 20.769531 -25.660156 20.589844 -26.121094 C 20.425781 -26.546875 20.195312 -26.917969 19.898438 -27.242188 C 19.601562 -27.5625 19.246094 -27.820312 18.832031 -28.015625 C 18.386719 -28.226562 17.917969 -28.34375 17.429688 -28.359375 L 30.082031 -27.886719 C 32.757812 -27.785156 35.148438 -27.070312 37.261719 -25.746094 C 39.375 -24.421875 41.015625 -22.652344 42.179688 -20.445312 C 43.339844 -18.242188 43.871094 -15.800781 43.769531 -13.125 L 43.574219 -7.898438 C 43.472656 -5.222656 42.761719 -2.832031 41.4375 -0.71875 C 40.109375 1.394531 38.34375 3.035156 36.132812 4.199219 C 33.929688 5.359375 31.492188 5.890625 28.816406 5.789062 Z M 2.511719 -4.609375 L 29.167969 -3.609375 C 30.167969 -3.570312 31.027344 -3.742188 31.75 -4.121094 C 32.464844 -4.5 33.039062 -5.03125 33.472656 -5.71875 C 33.902344 -6.410156 34.140625 -7.253906 34.175781 -8.25 L 34.375 -13.480469 C 34.410156 -14.480469 34.238281 -15.339844 33.859375 -16.058594 C 33.480469 -16.777344 32.949219 -17.351562 32.261719 -17.78125 C 31.574219 -18.214844 30.730469 -18.449219 29.730469 -18.488281 L 17.078125 -18.964844 C 16.277344 -18.992188 15.523438 -19.179688 14.804688 -19.515625 C 14.128906 -19.839844 13.527344 -20.28125 13.003906 -20.847656 C 12.480469 -21.410156 12.082031 -22.042969 11.8125 -22.746094 C 11.53125 -23.484375 11.402344 -24.253906 11.433594 -25.050781 C 11.460938 -25.847656 11.640625 -26.601562 11.96875 -27.308594 C 12.3125 -28.058594 12.804688 -28.710938 13.4375 -29.257812 C 14 -29.746094 14.628906 -30.113281 15.320312 -30.359375 C 16.027344 -30.613281 16.761719 -30.722656 17.519531 -30.695312 L 38.527344 -29.90625 C 38.074219 -29.921875 37.621094 -29.847656 37.179688 -29.679688 C 36.6875 -29.5 36.257812 -29.222656 35.890625 -28.859375 C 35.585938 -28.558594 35.347656 -28.207031 35.167969 -27.804688 C 34.980469 -27.386719 34.882812 -26.953125 34.863281 -26.507812 L 35.179688 -34.910156 C 35.164062 -34.492188 35.226562 -34.078125 35.371094 -33.664062 C 35.539062 -33.183594 35.792969 -32.757812 36.136719 -32.386719 C 36.480469 -32.019531 36.886719 -31.730469 37.351562 -31.53125 C 37.753906 -31.355469 38.164062 -31.261719 38.578125 -31.246094 L 11.921875 -32.25 C 10.921875 -32.285156 10.0625 -32.117188 9.339844 -31.734375 C 8.625 -31.359375 8.050781 -30.824219 7.621094 -30.140625 C 7.1875 -29.449219 6.949219 -28.605469 6.914062 -27.605469 L 6.714844 -22.375 C 6.679688 -21.378906 6.851562 -20.515625 7.230469 -19.796875 C 7.609375 -19.078125 8.140625 -18.503906 8.828125 -18.074219 C 9.515625 -17.640625 10.363281 -17.40625 11.359375 -17.367188 L 24.011719 -16.894531 C 24.773438 -16.863281 25.488281 -16.703125 26.167969 -16.410156 C 26.910156 -16.089844 27.558594 -15.628906 28.113281 -15.03125 C 28.664062 -14.4375 29.074219 -13.757812 29.339844 -12.992188 C 29.578125 -12.292969 29.6875 -11.566406 29.65625 -10.804688 C 29.628906 -10.046875 29.460938 -9.324219 29.15625 -8.640625 C 28.859375 -7.96875 28.445312 -7.371094 27.914062 -6.84375 C 27.324219 -6.253906 26.636719 -5.8125 25.863281 -5.523438 C 25.132812 -5.253906 24.367188 -5.132812 23.570312 -5.160156 L 2.5625 -5.953125 C 3.007812 -5.933594 3.449219 -6.003906 3.878906 -6.15625 C 4.292969 -6.304688 4.664062 -6.519531 4.984375 -6.796875 C 5.375 -7.136719 5.683594 -7.542969 5.902344 -8.019531 C 6.101562 -8.453125 6.207031 -8.894531 6.226562 -9.351562 L 5.910156 -0.945312 C 5.929688 -1.433594 5.847656 -1.910156 5.671875 -2.371094 C 5.507812 -2.796875 5.277344 -3.167969 4.976562 -3.492188 C 4.679688 -3.8125 4.324219 -4.070312 3.914062 -4.265625 C 3.464844 -4.476562 3 -4.59375 2.511719 -4.609375 Z M 2.511719 -4.609375 "/></g></g><g style="fill:#ffffff;fill-opacity:1;"><g transform="translate(131.187905, 106.74274)"><path style="stroke:none" d="M 2.375 -0.09375 C 2.070312 -0.0820312 1.789062 -0.1875 1.53125 -0.40625 C 1.269531 -0.632812 1.132812 -0.90625 1.125 -1.21875 L -0.296875 -36.21875 C -0.304688 -36.5625 -0.203125 -36.847656 0.015625 -37.078125 C 0.242188 -37.304688 0.515625 -37.425781 0.828125 -37.4375 L 12.4375 -37.90625 C 12.78125 -37.925781 13.070312 -37.828125 13.3125 -37.609375 C 13.5625 -37.398438 13.691406 -37.125 13.703125 -36.78125 L 14.125 -26.515625 C 14.132812 -26.210938 14.257812 -25.945312 14.5 -25.71875 C 14.75 -25.5 15.03125 -25.394531 15.34375 -25.40625 C 15.675781 -25.425781 15.945312 -25.554688 16.15625 -25.796875 C 16.363281 -26.035156 16.460938 -26.304688 16.453125 -26.609375 L 16.03125 -36.875 C 16.019531 -37.21875 16.125 -37.503906 16.34375 -37.734375 C 16.570312 -37.960938 16.84375 -38.085938 17.15625 -38.109375 L 28.78125 -38.578125 C 29.113281 -38.585938 29.398438 -38.488281 29.640625 -38.28125 C 29.890625 -38.070312 30.019531 -37.796875 30.03125 -37.453125 L 31.453125 -2.453125 C 31.460938 -2.140625 31.363281 -1.859375 31.15625 -1.609375 C 30.945312 -1.367188 30.675781 -1.242188 30.34375 -1.234375 L 18.71875 -0.765625 C 18.40625 -0.742188 18.117188 -0.84375 17.859375 -1.0625 C 17.597656 -1.289062 17.460938 -1.5625 17.453125 -1.875 L 17.03125 -12.09375 C 17.019531 -12.425781 16.898438 -12.707031 16.671875 -12.9375 C 16.441406 -13.164062 16.160156 -13.269531 15.828125 -13.25 C 15.515625 -13.238281 15.242188 -13.117188 15.015625 -12.890625 C 14.796875 -12.660156 14.691406 -12.378906 14.703125 -12.046875 L 15.125 -1.78125 C 15.132812 -1.46875 15.035156 -1.191406 14.828125 -0.953125 C 14.617188 -0.710938 14.34375 -0.582031 14 -0.5625 Z M 2.375 -0.09375 "/></g></g><g style="fill:#ffffff;fill-opacity:1;"><g transform="translate(163.494414, 105.511878)"><path style="stroke:none" d="M 2.375 -0.046875 C 2.070312 -0.0351562 1.789062 -0.144531 1.53125 -0.375 C 1.28125 -0.601562 1.15625 -0.875 1.15625 -1.1875 L 0.453125 -36.21875 C 0.441406 -36.5625 0.550781 -36.84375 0.78125 -37.0625 C 1.019531 -37.289062 1.296875 -37.410156 1.609375 -37.421875 L 13.234375 -37.65625 C 13.578125 -37.65625 13.863281 -37.546875 14.09375 -37.328125 C 14.332031 -37.117188 14.457031 -36.84375 14.46875 -36.5 L 15.171875 -1.46875 C 15.171875 -1.15625 15.0625 -0.878906 14.84375 -0.640625 C 14.632812 -0.398438 14.359375 -0.28125 14.015625 -0.28125 Z M 2.375 -0.046875 "/></g></g><g style="fill:#ffffff;fill-opacity:1;"><g transform="translate(179.417649, 105.052673)"><path style="stroke:none" d="M 2.375 0.015625 C 2.070312 0.00390625 1.796875 -0.113281 1.546875 -0.34375 C 1.296875 -0.582031 1.171875 -0.859375 1.171875 -1.171875 L 1.3125 -36.203125 C 1.3125 -36.546875 1.425781 -36.828125 1.65625 -37.046875 C 1.894531 -37.265625 2.171875 -37.367188 2.484375 -37.359375 L 29.15625 -37.265625 C 30.988281 -37.253906 32.617188 -36.832031 34.046875 -36 C 35.484375 -35.175781 36.613281 -34.039062 37.4375 -32.59375 C 38.257812 -31.15625 38.664062 -29.519531 38.65625 -27.6875 L 38.640625 -22.453125 C 38.628906 -20.617188 38.207031 -18.988281 37.375 -17.5625 C 36.539062 -16.132812 35.40625 -15.007812 33.96875 -14.1875 C 32.53125 -13.363281 30.894531 -12.957031 29.0625 -12.96875 L 16.4375 -13.015625 C 16.132812 -13.015625 15.859375 -12.90625 15.609375 -12.6875 C 15.359375 -12.46875 15.234375 -12.1875 15.234375 -11.84375 L 15.1875 -1.109375 C 15.1875 -0.796875 15.078125 -0.519531 14.859375 -0.28125 C 14.640625 -0.0507812 14.359375 0.0625 14.015625 0.0625 Z M 16.453125 -24.234375 L 23.453125 -24.203125 C 23.796875 -24.203125 24.078125 -24.316406 24.296875 -24.546875 C 24.515625 -24.785156 24.625 -25.0625 24.625 -25.375 C 24.632812 -25.707031 24.53125 -25.984375 24.3125 -26.203125 C 24.09375 -26.421875 23.8125 -26.53125 23.46875 -26.53125 L 16.46875 -26.5625 C 16.15625 -26.5625 15.878906 -26.453125 15.640625 -26.234375 C 15.410156 -26.015625 15.289062 -25.738281 15.28125 -25.40625 C 15.28125 -25.09375 15.394531 -24.816406 15.625 -24.578125 C 15.863281 -24.347656 16.140625 -24.234375 16.453125 -24.234375 Z M 16.453125 -24.234375 "/></g></g><g style="fill:#ffffff;fill-opacity:1;"><g transform="translate(218.528596, 105.197385)"><path style="stroke:none" d="M 2.34375 0.09375 C 2.03125 0.0820312 1.757812 -0.0390625 1.53125 -0.28125 C 1.3125 -0.53125 1.207031 -0.8125 1.21875 -1.125 L 1.53125 -9.53125 C 1.539062 -9.875 1.664062 -10.148438 1.90625 -10.359375 C 2.15625 -10.566406 2.4375 -10.664062 2.75 -10.65625 L 23.75 -9.875 C 24.09375 -9.863281 24.378906 -9.96875 24.609375 -10.1875 C 24.835938 -10.40625 24.957031 -10.664062 24.96875 -10.96875 C 24.976562 -11.3125 24.875 -11.597656 24.65625 -11.828125 C 24.445312 -12.054688 24.171875 -12.175781 23.828125 -12.1875 L 11.1875 -12.65625 C 9.34375 -12.726562 7.71875 -13.203125 6.3125 -14.078125 C 4.914062 -14.960938 3.832031 -16.132812 3.0625 -17.59375 C 2.300781 -19.0625 1.953125 -20.710938 2.015625 -22.546875 L 2.21875 -27.78125 C 2.289062 -29.613281 2.765625 -31.226562 3.640625 -32.625 C 4.515625 -34.03125 5.679688 -35.117188 7.140625 -35.890625 C 8.609375 -36.660156 10.265625 -37.007812 12.109375 -36.9375 L 38.75 -35.9375 C 39.09375 -35.925781 39.367188 -35.804688 39.578125 -35.578125 C 39.785156 -35.347656 39.882812 -35.0625 39.875 -34.71875 L 39.5625 -26.328125 C 39.550781 -26.015625 39.429688 -25.742188 39.203125 -25.515625 C 38.972656 -25.296875 38.6875 -25.191406 38.34375 -25.203125 L 17.34375 -26 C 17.03125 -26.007812 16.75 -25.90625 16.5 -25.6875 C 16.257812 -25.476562 16.132812 -25.207031 16.125 -24.875 C 16.113281 -24.5625 16.21875 -24.285156 16.4375 -24.046875 C 16.664062 -23.804688 16.9375 -23.679688 17.25 -23.671875 L 29.90625 -23.1875 C 31.738281 -23.125 33.351562 -22.648438 34.75 -21.765625 C 36.144531 -20.878906 37.226562 -19.703125 38 -18.234375 C 38.78125 -16.773438 39.140625 -15.128906 39.078125 -13.296875 L 38.875 -8.078125 C 38.800781 -6.242188 38.320312 -4.625 37.4375 -3.21875 C 36.5625 -1.8125 35.394531 -0.726562 33.9375 0.03125 C 32.476562 0.800781 30.832031 1.15625 29 1.09375 Z M 2.34375 0.09375 "/></g></g><g style="fill:#222222;fill-opacity:1;"><g transform="translate(164.585184, 163.494366)"><path style="stroke:none" d="M 4.921875 1.90625 C 3.816406 1.53125 2.960938 1.097656 2.359375 0.609375 C 1.753906 0.117188 1.363281 -0.390625 1.1875 -0.921875 C 1.007812 -1.460938 1 -1.988281 1.15625 -2.5 L 4.40625 -1.40625 C 4.332031 -1.101562 4.378906 -0.84375 4.546875 -0.625 C 4.710938 -0.414062 5.066406 -0.21875 5.609375 -0.03125 C 6.066406 0.113281 6.40625 0.164062 6.625 0.125 C 6.84375 0.09375 6.976562 0.00390625 7.03125 -0.140625 C 7.0625 -0.242188 7.050781 -0.335938 7 -0.421875 C 6.957031 -0.515625 6.832031 -0.625 6.625 -0.75 C 6.425781 -0.882812 6.085938 -1.0625 5.609375 -1.28125 C 4.742188 -1.65625 4.0625 -2.003906 3.5625 -2.328125 C 3.0625 -2.660156 2.703125 -2.984375 2.484375 -3.296875 C 2.265625 -3.609375 2.148438 -3.914062 2.140625 -4.21875 C 2.140625 -4.53125 2.191406 -4.84375 2.296875 -5.15625 C 2.398438 -5.457031 2.566406 -5.726562 2.796875 -5.96875 C 3.035156 -6.207031 3.359375 -6.382812 3.765625 -6.5 C 4.179688 -6.613281 4.691406 -6.644531 5.296875 -6.59375 C 5.910156 -6.550781 6.640625 -6.390625 7.484375 -6.109375 C 8.296875 -5.828125 8.957031 -5.519531 9.46875 -5.1875 C 9.988281 -4.851562 10.382812 -4.5 10.65625 -4.125 C 10.925781 -3.75 11.09375 -3.363281 11.15625 -2.96875 C 11.21875 -2.582031 11.195312 -2.1875 11.09375 -1.78125 L 7.9375 -2.84375 C 7.96875 -3.007812 7.960938 -3.164062 7.921875 -3.3125 C 7.890625 -3.46875 7.796875 -3.613281 7.640625 -3.75 C 7.484375 -3.882812 7.234375 -4.007812 6.890625 -4.125 C 6.484375 -4.269531 6.179688 -4.320312 5.984375 -4.28125 C 5.796875 -4.25 5.675781 -4.164062 5.625 -4.03125 C 5.601562 -3.957031 5.601562 -3.875 5.625 -3.78125 C 5.644531 -3.695312 5.726562 -3.601562 5.875 -3.5 C 6.019531 -3.394531 6.265625 -3.257812 6.609375 -3.09375 C 7.421875 -2.738281 8.082031 -2.414062 8.59375 -2.125 C 9.113281 -1.832031 9.519531 -1.550781 9.8125 -1.28125 C 10.101562 -1.007812 10.300781 -0.75 10.40625 -0.5 C 10.519531 -0.257812 10.570312 -0.0234375 10.5625 0.203125 C 10.5625 0.441406 10.523438 0.671875 10.453125 0.890625 C 9.867188 2.609375 8.023438 2.945312 4.921875 1.90625 Z M 4.921875 1.90625 "/></g></g><g style="fill:#222222;fill-opacity:1;"><g transform="translate(175.667954, 167.125605)"><path style="stroke:none" d="M 3.015625 0.578125 L 4.078125 -5 L 1.140625 -5.5625 L 1.578125 -7.8125 L 11.125 -6 L 10.6875 -3.75 L 7.765625 -4.296875 L 6.703125 1.28125 Z M 3.015625 0.578125 "/></g></g><g style="fill:#222222;fill-opacity:1;"><g transform="translate(186.568946, 169.178242)"><path style="stroke:none" d="M 0.765625 0.03125 L 1.125 -7.921875 L 7.21875 -7.640625 C 8.289062 -7.585938 9.132812 -7.4375 9.75 -7.1875 C 10.375 -6.945312 10.816406 -6.628906 11.078125 -6.234375 C 11.335938 -5.835938 11.457031 -5.394531 11.4375 -4.90625 C 11.40625 -4.363281 11.21875 -3.910156 10.875 -3.546875 C 10.53125 -3.179688 10.046875 -2.945312 9.421875 -2.84375 L 9.421875 -2.828125 C 9.742188 -2.734375 9.992188 -2.617188 10.171875 -2.484375 C 10.359375 -2.347656 10.503906 -2.164062 10.609375 -1.9375 C 10.710938 -1.707031 10.789062 -1.40625 10.84375 -1.03125 L 10.921875 -0.671875 C 10.960938 -0.429688 11.007812 -0.222656 11.0625 -0.046875 C 11.113281 0.117188 11.171875 0.304688 11.234375 0.515625 L 7.5 0.34375 C 7.445312 0.226562 7.40625 0.09375 7.375 -0.0625 C 7.34375 -0.21875 7.304688 -0.441406 7.265625 -0.734375 L 7.203125 -1.078125 C 7.171875 -1.304688 7.0625 -1.484375 6.875 -1.609375 C 6.695312 -1.734375 6.378906 -1.804688 5.921875 -1.828125 L 4.640625 -1.890625 L 4.546875 0.203125 Z M 4.734375 -3.921875 L 6.59375 -3.828125 C 6.9375 -3.816406 7.203125 -3.878906 7.390625 -4.015625 C 7.585938 -4.148438 7.691406 -4.351562 7.703125 -4.625 C 7.710938 -4.875 7.628906 -5.066406 7.453125 -5.203125 C 7.273438 -5.335938 7.015625 -5.410156 6.671875 -5.421875 L 4.8125 -5.515625 Z M 4.734375 -3.921875 "/></g></g><g style="fill:#222222;fill-opacity:1;"><g transform="translate(199.28221, 169.617051)"><path style="stroke:none" d="M 0.765625 -0.078125 L -0.03125 -8 L 8.828125 -8.890625 L 9.046875 -6.71875 L 3.953125 -6.203125 L 4.046875 -5.328125 L 8.6875 -5.796875 L 8.859375 -4.09375 L 4.21875 -3.625 L 4.3125 -2.625 L 9.53125 -3.140625 L 9.75 -0.96875 Z M 0.765625 -0.078125 "/></g></g><g style="fill:#222222;fill-opacity:1;"><g transform="translate(210.525622, 168.413459)"><path style="stroke:none" d="M 0.75 -0.171875 L -1.109375 -7.921875 L 7.546875 -10.015625 L 8.0625 -7.890625 L 3.078125 -6.6875 L 3.28125 -5.828125 L 7.828125 -6.921875 L 8.21875 -5.25 L 3.671875 -4.15625 L 3.90625 -3.1875 L 9.015625 -4.40625 L 9.53125 -2.28125 Z M 0.75 -0.171875 "/></g></g><g style="fill:#222222;fill-opacity:1;"><g transform="translate(221.49384, 165.690039)"><path style="stroke:none" d="M 2.859375 -1.109375 L 0.8125 -6.390625 L -1.96875 -5.3125 L -2.8125 -7.453125 L 6.25 -10.96875 L 7.09375 -8.828125 L 4.3125 -7.75 L 6.359375 -2.46875 Z M 2.859375 -1.109375 "/></g></g><g style="fill:#222222;fill-opacity:1;"><g transform="translate(232.028179, 161.783034)"><path style="stroke:none" d="M 2.171875 -1.3125 L -4.078125 -6.84375 L -0.90625 -8.765625 L 2.953125 -4.859375 L 3.140625 -4.671875 L 1.53125 -10.234375 L 4.265625 -11.890625 L 8.25 -8.09375 L 8.4375 -7.90625 L 8.46875 -7.921875 L 8.390625 -8.15625 L 6.71875 -13.375 L 9.875 -15.296875 L 11.890625 -7.203125 L 8.171875 -4.953125 L 4.515625 -8.515625 L 4.40625 -8.640625 L 4.375 -8.625 L 4.421875 -8.453125 L 5.875 -3.5625 Z M 2.171875 -1.3125 "/></g></g><g style="fill:#222222;fill-opacity:1;"><g transform="translate(247.008753, 152.249504)"><path style="stroke:none" d="M 0.578125 -0.5 L -4.671875 -6.484375 L 2.015625 -12.359375 L 3.453125 -10.71875 L -0.390625 -7.34375 L 0.1875 -6.6875 L 3.6875 -9.765625 L 4.8125 -8.46875 L 1.3125 -5.390625 L 1.984375 -4.640625 L 5.921875 -8.109375 L 7.359375 -6.46875 Z M 0.578125 -0.5 "/></g></g><g style="fill:#222222;fill-opacity:1;"><g transform="translate(255.549421, 144.744866)"><path style="stroke:none" d="M 0.046875 -0.046875 L -3.84375 -7.796875 L -0.390625 -11.90625 L 7.953125 -9.453125 L 5.359375 -6.359375 L 4.09375 -6.859375 L 1.9375 -4.3125 L 2.640625 -3.140625 Z M 0.859375 -6.078125 L 2.15625 -7.609375 L -0.453125 -8.609375 L -0.734375 -8.765625 L -0.765625 -8.734375 L -0.578125 -8.46875 Z M 0.859375 -6.078125 "/></g></g><g style="fill:#222222;fill-opacity:1;"><g transform="translate(264.267367, 134.177414)"><path style="stroke:none" d="M 0.390625 -0.65625 L -6.4375 -4.75 L -3.296875 -9.96875 C -2.742188 -10.90625 -2.207031 -11.582031 -1.6875 -12 C -1.164062 -12.425781 -0.671875 -12.660156 -0.203125 -12.703125 C 0.265625 -12.742188 0.707031 -12.640625 1.125 -12.390625 C 1.59375 -12.109375 1.898438 -11.726562 2.046875 -11.25 C 2.203125 -10.78125 2.179688 -10.25 1.984375 -9.65625 L 2 -9.640625 C 2.238281 -9.878906 2.457031 -10.046875 2.65625 -10.140625 C 2.863281 -10.242188 3.09375 -10.285156 3.34375 -10.265625 C 3.59375 -10.242188 3.898438 -10.171875 4.265625 -10.046875 L 4.609375 -9.953125 C 4.828125 -9.867188 5.023438 -9.804688 5.203125 -9.765625 C 5.390625 -9.722656 5.582031 -9.679688 5.78125 -9.640625 L 3.859375 -6.4375 C 3.734375 -6.4375 3.59375 -6.457031 3.4375 -6.5 C 3.289062 -6.550781 3.082031 -6.628906 2.8125 -6.734375 L 2.46875 -6.84375 C 2.257812 -6.914062 2.054688 -6.90625 1.859375 -6.8125 C 1.660156 -6.71875 1.441406 -6.472656 1.203125 -6.078125 L 0.546875 -4.984375 L 2.34375 -3.90625 Z M -1.1875 -6.03125 L -0.234375 -7.625 C -0.0546875 -7.914062 0.015625 -8.175781 -0.015625 -8.40625 C -0.046875 -8.644531 -0.179688 -8.835938 -0.421875 -8.984375 C -0.628906 -9.109375 -0.832031 -9.117188 -1.03125 -9.015625 C -1.238281 -8.921875 -1.429688 -8.726562 -1.609375 -8.4375 L -2.5625 -6.84375 Z M -1.1875 -6.03125 "/></g></g></g></svg>